<?xml version="1.0" encoding="UTF-8" standalone="no"?>
<!-- Created with Inkscape (http://www.inkscape.org/) -->

<svg
   version="1.1"
   id="svg1"
   width="768"
   height="768"
   viewBox="0 0 768 768"
   sodipodi:docname="Sceptix_12.svg"
   inkscape:version="1.3 (0e150ed6c4, 2023-07-21)"
   xmlns:inkscape="http://www.inkscape.org/namespaces/inkscape"
   xmlns:sodipodi="http://sodipodi.sourceforge.net/DTD/sodipodi-0.dtd"
   xmlns="http://www.w3.org/2000/svg"
   xmlns:svg="http://www.w3.org/2000/svg">
  <defs
     id="defs1" />
  <sodipodi:namedview
     id="namedview1"
     pagecolor="#505050"
     bordercolor="#eeeeee"
     borderopacity="1"
     inkscape:showpageshadow="0"
     inkscape:pageopacity="0"
     inkscape:pagecheckerboard="0"
     inkscape:deskcolor="#505050"
     inkscape:zoom="0.77063591"
     inkscape:cx="275.09749"
     inkscape:cy="421.08082"
     inkscape:window-width="1920"
     inkscape:window-height="1051"
     inkscape:window-x="-9"
     inkscape:window-y="-9"
     inkscape:window-maximized="1"
     inkscape:current-layer="g1" />
  <g
     inkscape:groupmode="layer"
     inkscape:label="Image"
     id="g1">
    <path
       style="fill:#000000"
       d="m 237.87962,611.95479 c -6.74792,-3.06514 -10.80611,-11.7931 -6.54398,-14.07412 2.61615,-1.40012 3.64056,-0.81623 5.73253,3.26744 2.08258,4.06532 3.03128,4.65256 7.54666,4.67128 4.19449,0.0174 6.8067,-2.67517 6.8067,-7.01607 0,-3.48349 -1.23571,-4.81427 -10.01028,-10.78044 -4.13065,-2.8086 -8.29315,-6.43184 -9.25,-8.05165 -1.99462,-3.37663 -2.27465,-9.86838 -0.58559,-13.57545 3.65966,-8.03209 18.32276,-8.44485 23.55931,-0.6632 2.624,3.89932 2.92587,6.10212 0.83625,6.10212 -0.79767,0 -1.86501,0.74102 -2.37186,1.64672 -0.76307,1.36352 -1.38988,0.84759 -3.64471,-3 -3.1002,-5.29009 -5.6143,-5.9439 -9.89826,-2.57414 -3.52663,2.77405 -3.48109,6.7695 0.11514,10.10015 1.5125,1.4008 5.55805,4.42374 8.99012,6.71764 3.44281,2.30109 6.97809,5.59782 7.88636,7.35422 3.76547,7.28161 0.52958,16.41788 -7.03102,19.85153 -5.11939,2.32498 -7.06327,2.32882 -12.13737,0.024 z m 57.75095,0.90525 c -3.86441,-0.92707 -6.78151,-3.35426 -9.04139,-7.52298 -1.30139,-2.40062 -1.63161,-6.1089 -1.64762,-18.50236 -0.0172,-13.30098 0.25236,-16.04877 1.89993,-19.36806 5.94983,-11.98683 22.9975,-9.45409 27.00907,4.01269 0.88738,2.9789 -1.8938,5.71218 -4.43075,4.35445 -1.02456,-0.54833 -2.17153,-2.00993 -2.54884,-3.24802 -1.20135,-3.94214 -3.54447,-5.75106 -7.44944,-5.75106 -2.48138,0 -4.31399,0.68948 -5.59501,2.10499 -1.69792,1.87618 -1.90499,3.7617 -1.90499,17.3463 0,16.23896 0.41282,17.80467 5.17149,19.61391 3.78777,1.44011 7.85485,-0.68841 9.87489,-5.16806 1.50548,-3.33856 2.22467,-3.94704 4.36931,-3.69675 3.34727,0.39065 3.68813,2.64615 1.23722,8.18683 -2.79621,6.3213 -9.61666,9.39589 -16.94387,7.63812 z m 47.79096,-1.00278 c -1.24486,-0.78578 -1.55131,-4.74612 -1.80169,-23.28365 -0.18628,-13.79222 0.0958,-23.38225 0.73736,-25.06971 l 1.03904,-2.73289 11.75057,0.28185 c 10.52784,0.25251 11.78759,0.47499 12.10642,2.13806 0.58478,3.05032 -1.17627,3.77824 -9.21696,3.80978 -8.65472,0.0339 -9.62515,0.79385 -9.60109,7.51826 0.0279,7.80073 0.49372,8.31574 7.52119,8.31574 7.829,0 9.46516,0.60502 9.46516,3.5 0,2.89498 -1.63616,3.5 -9.46516,3.5 -6.9814,0 -7.50753,0.56064 -7.50753,8 0,7.37581 0.55602,7.98944 7.33932,8.09968 3.37335,0.0548 7.25601,0.41205 8.62812,0.79385 2.79973,0.77902 3.9134,3.916 1.85364,5.22133 -1.83735,1.16438 -20.98,1.08705 -22.84839,-0.0923 z m 53.52894,-0.63648 c -2.11408,-2.11408 -2.28608,-45.96838 -0.19152,-48.83285 1.15672,-1.58191 2.40648,-1.76565 9.25,-1.35998 13.38958,0.79372 17.79479,4.86297 17.7111,16.36038 -0.0765,10.51237 -3.5782,14.5391 -14.52731,16.70553 l -6.27121,1.24084 -0.2574,6 c -0.33717,7.85944 -0.91052,10.15859 -2.70503,10.84721 -0.81383,0.3123 -2.16771,-0.12021 -3.00863,-0.96113 z m 17.22106,-26.94077 c 1.68519,-1.91501 2.25,-3.79796 2.25,-7.50107 0,-6.32616 -2.33139,-8.94424 -7.96482,-8.94424 -5.12559,0 -6.03518,1.71225 -6.03518,11.36093 0,6.28137 0.28286,7.57202 1.75,7.98488 3.32175,0.93474 7.75709,-0.35173 10,-2.9005 z m 44.5,27.89241 c -0.9453,-0.38144 -1.25,-5.71636 -1.25,-21.88587 0,-20.39812 -0.0925,-21.43099 -2.01131,-22.4579 -1.10623,-0.59204 -2.56873,-1.00455 -3.25,-0.91671 -3.87452,0.4996 -4.86703,-0.11642 -4.55511,-2.82724 l 0.31642,-2.75 11,-0.29087 c 13.57109,-0.35886 15.5,0.0474 15.5,3.26461 0,2.03705 -0.61368,2.53762 -3.75,3.05886 -2.0625,0.34277 -4.3125,0.79904 -5,1.01393 -0.9479,0.29628 -1.25,5.46498 -1.25,21.3869 0,19.73487 -0.1162,21.05839 -1.93426,22.03139 -1.06384,0.56935 -2.07634,0.99965 -2.25,0.95623 -0.17366,-0.0434 -0.87824,-0.30592 -1.56574,-0.58333 z m 44,0 c -1.75884,-0.70971 -1.80638,-48.38134 -0.05,-50.13772 1.58146,-1.58146 2.34254,-1.5146 4.22857,0.37143 1.33543,1.33542 1.57143,4.9497 1.57143,24.06574 0,25.45674 -0.52614,27.80842 -5.75,25.70055 z m 32.19423,-0.62245 c -0.29942,-0.78027 1.75869,-6.32291 4.57358,-12.31697 6.09816,-12.98553 6.09581,-14.03638 -0.0605,-27.15495 -3.35471,-7.14856 -4.0734,-9.52724 -3.15579,-10.44485 0.82823,-0.82823 2.00179,-0.90195 3.87369,-0.24335 2.0854,0.73372 3.35751,2.56492 5.69287,8.19485 1.65405,3.9875 3.40218,7.25 3.88472,7.25 0.48255,0 2.4126,-3.32284 4.28901,-7.38408 3.23807,-7.00838 4.74401,-8.61592 8.07138,-8.61592 2.97384,0 2.45508,3.20509 -2.0165,12.45871 -2.66856,5.52235 -4.59669,10.92477 -4.59669,12.87939 0,1.96797 2.11366,7.84786 5.0871,14.15155 5.3879,11.42234 5.38322,12.84209 -0.0404,12.2694 -2.04512,-0.21595 -3.05031,-1.64672 -6.04124,-8.59902 -1.97335,-4.58698 -3.99854,-8.34275 -4.50041,-8.34615 -0.50188,-0.003 -2.73332,3.74959 -4.95876,8.33997 -3.47405,7.16587 -4.43596,8.39097 -6.80195,8.66312 -1.69319,0.19476 -2.96558,-0.23002 -3.30008,-1.1017 z M 385.61135,464.80907 c -4.84735,-2.95536 -6.69281,-8.03749 -5.52427,-15.21308 1.7677,-10.85475 -2.8938,-20.39703 -16.30837,-33.38391 -9.17719,-8.8846 -9.65576,-12.37738 -1.69594,-12.37738 2.27156,0 2.43618,0.27997 1.81843,3.09254 -0.57076,2.59868 -0.40095,3.03784 1.06337,2.75 3.51508,-0.69096 3.87049,-3.22722 1.07318,-7.65844 -3.04566,-4.82463 -4.88304,-5.2327 -7.25577,-1.61146 -2.26992,3.46433 -11.10634,8.40637 -15.05143,8.41798 -6.2037,0.0182 -5.18617,-2.52921 2.57377,-6.44361 2.96053,-1.4934 7.58069,-4.77116 10.26702,-7.28391 5.1758,-4.84135 5.66074,-4.88581 11.12866,-1.02036 1.45863,1.03116 1.94594,0.9886 2.70976,-0.23665 0.67977,-1.09044 0.13194,-2.31863 -2.02847,-4.54761 -2.74557,-2.83271 -4.22963,-7.36133 -1.95081,-5.95295 1.64975,1.0196 4.84267,-0.46266 5.50729,-2.55668 0.67143,-2.11552 3.99618,-2.58209 6.48376,-0.9099 1.26115,0.84776 1.02852,1.3956 -1.46092,3.44043 -1.62851,1.33766 -2.66196,2.73107 -2.29657,3.09646 0.96824,0.96825 4.88944,-0.28308 7.66515,-2.44609 l 2.40766,-1.8762 -3.40766,-3.07921 c -1.87421,-1.69357 -4.87016,-3.87795 -6.65766,-4.85418 -3.46825,-1.89416 -4.2108,-4.01423 -1.7383,-4.96302 0.92415,-0.35463 3.60964,1.21223 6.90949,4.03138 2.96879,2.53631 5.66352,4.61148 5.9883,4.61148 0.32478,0 0.59051,-1.31945 0.59051,-2.93212 0,-2.45766 -1.44067,-4.15441 -8.90322,-10.48577 -13.82317,-11.72782 -23.14342,-22.8688 -20.95894,-25.05329 0.20792,-0.20792 7.12447,6.09651 15.3701,14.00984 13.81428,13.25755 15.01802,14.18293 15.32252,11.77912 0.26622,-2.10157 -1.04607,-3.99452 -6.75,-9.73678 -3.89425,-3.92042 -7.08046,-7.67995 -7.08046,-8.35452 0,-2.62023 3.39205,-0.99415 8.91465,4.27352 5.46359,5.21138 9.11213,7.52562 5.91212,3.75 -2.6798,-3.16183 -5.8613,-9.3851 -5.27932,-10.32677 0.31382,-0.50778 1.21903,-0.92323 2.01157,-0.92323 1.89726,0 1.83676,-2.98994 -0.11695,-5.77925 -1.67961,-2.39797 -1.19724,-4.22075 1.11695,-4.22075 0.93442,0 1.44098,-1.05461 1.44098,-3 0,-3.75643 -0.63737,-3.74758 -5.27267,0.0732 -2.05059,1.69027 -4.51046,2.9226 -5.46636,2.73851 -2.6777,-0.51568 -2.63029,-3.32244 0.077,-4.55594 2.98108,-1.35826 9.66203,-7.13846 9.66203,-8.35936 0,-0.49303 -0.87344,-0.89641 -1.94098,-0.89641 -3.23182,0 -3.58292,-2.17052 -0.72033,-4.45308 2.93932,-2.34373 3.55666,-5.54692 1.06904,-5.54692 -0.87575,0 -2.73644,0.9 -4.13486,2 -2.65301,2.08686 -6.27287,2.69086 -6.27287,1.04668 0,-0.95281 1.5185,-2.17207 7.88768,-6.33335 2.92887,-1.91357 3.44107,-2.86096 3.78189,-6.99514 0.21681,-2.63 -0.0383,-5.55471 -0.56699,-6.49937 -0.68934,-1.23178 -0.50028,-2.22687 0.66844,-3.51829 1.36577,-1.50916 1.43782,-2.3089 0.44499,-4.93922 -0.9603,-2.54413 -0.91694,-3.4343 0.22898,-4.70052 1.02625,-1.13399 1.13603,-2.05807 0.40064,-3.37216 -0.55715,-0.99556 -0.73509,-2.5343 -0.39544,-3.41942 0.33965,-0.88512 0.0398,-1.96998 -0.66632,-2.41079 -0.96526,-0.60259 -1.01024,-1.24033 -0.18127,-2.56982 0.86543,-1.38797 0.66732,-2.35707 -0.92102,-4.50542 -1.56384,-2.1152 -1.80571,-3.25353 -1.06455,-5.01013 0.52749,-1.25018 0.94194,-7.11593 0.92102,-13.035 -0.0332,-9.39126 0.18484,-10.83268 1.71195,-11.31738 2.31558,-0.73496 2.21574,-2.10105 -0.25,-3.42067 -2.45865,-1.31583 -2.58425,-3.57366 -0.27081,-4.86832 1.63891,-0.91718 1.63891,-1.06745 0,-2.87843 -2.12669,-2.34997 -2.21016,-4.13145 -0.22919,-4.89162 2.09913,-0.80552 1.86781,-2.03218 -0.5,-2.65138 -3.12177,-0.81636 -2.59975,-4.50691 0.69221,-4.89383 2.09045,-0.24569 2.87964,-1.04471 3.53074,-3.57472 1.29548,-5.03384 -0.51902,-7.59634 -4.80905,-6.79153 -2.98784,0.56053 -3.4139,0.38331 -3.4139,-1.42001 0,-1.13325 1.39296,-4.52864 3.09546,-7.54531 3.63382,-6.43878 6.73995,-7.33064 9.52484,-2.73485 0.91652,1.5125 2.5019,3.96928 3.52305,5.45951 2.36601,3.45285 2.34926,4.79049 -0.06,4.79049 -2.32317,0 -3.07228,1.75221 -1.99567,4.66802 0.46563,1.26107 0.31826,3.44562 -0.35228,5.22208 -1.00364,2.65896 -0.86316,3.44579 1.08586,6.08198 1.71297,2.31693 1.89324,3.02792 0.76771,3.02792 -0.809,0 -1.76355,0.4735 -2.12122,1.05222 -1.27641,2.06526 -1.2601,23.35255 0.0203,26.49636 1.64554,4.04037 11.69785,12.84299 18.26198,15.99168 5.73052,2.74883 6.55393,4.5446 2.8563,6.22935 -2.00406,0.91311 -2.50898,2.08386 -3.10187,7.19218 -0.62448,5.38057 -0.40007,6.73123 1.89921,11.43078 2.3038,4.7088 4.41384,6.69363 18.12371,17.0483 12.75348,9.63233 16.59213,13.14957 21.55787,19.75278 5.46154,7.26252 6.76321,10.80635 3.96922,10.80635 -0.55458,0 -1.74546,-1.125 -2.6464,-2.5 -1.54975,-2.36522 -4.31023,-3.26447 -5.71349,-1.86122 -0.35133,0.35133 0.47367,1.96086 1.83333,3.57673 1.35967,1.61587 2.47212,3.79987 2.47212,4.85335 0,1.22136 1.33265,2.55236 3.67785,3.67327 4.11042,1.96463 5.29378,3.94779 2.90307,4.86519 -3.06302,1.17539 -6.10907,-0.58892 -9.01508,-5.22164 -1.61379,-2.57267 -6.00129,-7.18327 -9.75,-10.24578 -3.79814,-3.10286 -6.81587,-6.35888 -6.81587,-7.35404 0,-2.57473 1.5841,-2.21433 6.0532,1.37713 3.45965,2.78026 4.23909,3.02486 6.44136,2.02144 1.37799,-0.62785 2.50544,-1.54694 2.50544,-2.04241 0,-1.83867 -7.92552,-8.94154 -21.51594,-19.28263 -16.13065,-12.27397 -18.94024,-15.03357 -20.24951,-19.88928 -1.02763,-3.81118 0.23596,-16.79469 1.78843,-18.37636 0.52526,-0.53514 -1.03772,-2.26762 -3.81673,-4.23067 -2.58844,-1.82842 -6.35995,-5.36907 -8.38113,-7.8681 -3.36901,-4.16552 -3.73084,-4.3674 -4.34718,-2.42549 -0.48664,1.53328 0.0751,2.89829 2.03412,4.9431 2.78575,2.90769 2.65245,4.98154 -0.32108,4.99515 -1.44674,0.007 -1.73678,1.38333 -2.0081,9.53161 -0.18476,5.54868 0.17702,11.02114 0.86677,13.11108 0.92501,2.80283 0.91548,3.75308 -0.0436,4.34582 -0.86433,0.53419 -1.02258,2.24826 -0.53492,5.79399 0.43112,3.1346 0.27004,5.82484 -0.42672,7.12675 -1.54623,2.88915 0.37126,9.78161 3.70105,13.30346 2.16584,2.29078 2.32244,2.81626 0.99144,3.32701 -0.86935,0.3336 -2.5978,0.0622 -3.84101,-0.60316 l -2.26036,-1.20972 1.93222,3.046 c 1.06273,1.67529 3.72547,4.46987 5.91722,6.21017 l 3.98499,3.16419 2.21704,-2.57747 c 2.64944,-3.08016 3.89229,-3.23205 5.27688,-0.64492 0.85681,1.60097 0.53609,2.2873 -1.86918,4 -4.4304,3.15472 -8.41005,2.6808 -13.10476,-1.56058 l -4.0158,-3.62804 0.17506,4.62804 c 0.11765,3.11063 0.6137,4.62803 1.51291,4.62803 1.65366,0 1.71192,2.08494 0.15381,5.50462 -1.05555,2.31669 -0.89041,2.871 1.52162,5.10756 2.89806,2.68724 2.74436,4.38782 -0.39658,4.38782 -1.06754,0 -1.94098,0.64844 -1.94098,1.44098 0,2.92472 2.26697,2.6932 5.66515,-0.57856 2.95024,-2.8405 3.41226,-3.86689 2.97646,-6.61242 -0.54364,-3.42497 0.8675,-4.34089 3.15839,-2.05 3.11188,3.11188 -0.3165,10.73754 -6.97956,15.52447 -4.38498,3.1503 -6.99557,7.43374 -5.46399,8.96531 0.32816,0.32816 5.80211,-4.5303 12.16435,-10.79657 6.36223,-6.26626 12.10413,-11.39321 12.75976,-11.39321 0.65563,0 1.33769,0.75626 1.5157,1.68059 0.32801,1.7032 -14.4516,16.75966 -22.5958,23.01906 l -4.07281,3.13024 2.04903,4.08506 c 2.51663,5.01729 5.45656,8.32415 9.07332,10.20574 3.91289,2.03565 3.40548,-0.019 -0.79613,-3.22367 -4.17601,-3.1852 -3.37204,-4.76544 1.71051,-3.36208 7.48587,2.06695 11.27419,7.58961 6.83562,9.96506 -1.1,0.5887 -2,1.70298 -2,2.47617 0,2.53885 2.10509,2.77373 4.52069,0.50439 l 2.37263,-2.22897 5.20055,4.54931 c 2.8603,2.50212 8.0593,6.00034 11.55334,7.77382 3.49403,1.77348 6.35279,3.78404 6.35279,4.4679 0,4.00468 -8.5745,1.28395 -17.72381,-5.62385 -5.36597,-4.05134 -7.27619,-4.3092 -7.27619,-0.9822 0,2.44808 2.77745,4.60468 5.47502,4.25118 1.20834,-0.15834 2.767,0.39894 3.46369,1.23841 1.06691,1.28554 0.55313,2.23989 -3.25705,6.05007 -2.48805,2.48807 -5.20297,4.52377 -6.03314,4.52377 -0.83017,0 -1.6532,1.0125 -1.82895,2.25 -0.17575,1.2375 -1.33205,2.69421 -2.56955,3.23713 -1.36458,0.59867 -2.25,1.86377 -2.25,3.21481 0,1.22523 -0.91223,2.71591 -2.02719,3.31261 -1.69676,0.90808 -2.51175,0.60035 -5,-1.88789 -3.92322,-3.92322 -3.74967,-5.09845 0.77719,-5.26284 2.48743,-0.0903 2.90828,-0.26313 1.25,-0.51324 -1.375,-0.20738 -5.30971,-1.09531 -8.7438,-1.97319 -6.27713,-1.60465 -9.2562,-1.38879 -9.2562,0.67068 0,0.69348 1.04054,0.8823 2.76946,0.50257 3.12999,-0.68747 6.95039,1.47561 5.8243,3.29766 -1.55595,2.51758 -7.21585,1.16705 -14.4168,-3.44006 -3.94733,-2.52546 -7.17696,-5.1989 -7.17696,-5.94098 0,-2.45573 2.01964,-2.65322 5.59007,-0.54662 5.23302,3.08756 5.87896,2.54573 2.28969,-1.92064 -1.76797,-2.2 -3.47668,-3.98681 -3.79712,-3.97069 -0.32045,0.0161 -2.0798,1.39075 -3.90967,3.05473 -4.11166,3.73892 -3.93066,4.0101 8.05564,12.06968 4.82427,3.24383 8.77139,6.35038 8.77139,6.90346 0,2.12007 -3.26515,2.1229 -6.12934,0.005 l -2.98497,-2.20689 2.17988,4.3222 c 1.19893,2.3772 3.00929,5.11291 4.02302,6.07935 1.01373,0.96643 1.58536,2.42893 1.27029,3.25 -0.42913,1.11829 0.17596,1.49284 2.41169,1.49284 1.6415,0 3.54474,0.675 4.22943,1.5 2.25445,2.71645 3.009,1.56314 1.06679,-1.63057 -2.91058,-4.78606 -0.86179,-7.63367 3.30181,-4.58917 1.38301,1.01128 1.82984,3.14879 2.12679,10.17406 0.4217,9.97616 -0.58263,13.04749 -5.38467,16.46684 -3.62444,2.58083 -4.76395,2.58763 -8.9209,0.0532 z m 8.39874,-6.50159 c 1.47968,-1.93997 2.3534,-3.85247 1.94158,-4.25 -0.41182,-0.39753 -1.42946,0.28972 -2.26142,1.52722 -1.96335,2.92037 -2.51531,2.8504 -6.73392,-0.85359 -2.86405,-2.51467 -3.5348,-2.76977 -3.5348,-1.34439 0,2.31796 4.71653,8.44798 6.5,8.44798 0.76902,0 2.60887,-1.58725 4.08856,-3.52722 z m -4.33856,-10.46182 c -1.7875,-1.08986 -3.28553,-2.55068 -3.32895,-3.24626 -0.0609,-0.97503 -0.19889,-0.96514 -0.60262,0.0432 -0.73207,1.82834 2.56645,5.1929 5.08656,5.1884 1.73993,-0.003 1.54417,-0.33959 -1.15499,-1.9853 z m 8.75,-32.88852 c 0,-1.53806 -2.86757,-3.32232 -4.10769,-2.55589 -0.86075,0.53198 -0.67958,1.11583 0.64733,2.08609 2.12124,1.55109 3.46036,1.7329 3.46036,0.4698 z m 8.82464,-2.76447 c -3.43872,-3.43872 -6.82464,-4.12073 -6.82464,-1.37466 0,1.43484 6.04742,5.00836 8.48333,5.01295 1.67301,0.003 1.41349,-0.56611 -1.65869,-3.63829 z m 8.17536,-2.2764 c 0,-1.05686 -3.94422,-5.08157 -4.97994,-5.08157 -1.91956,0 -1.90644,1.87473 0.0303,4.33696 1.79754,2.28514 4.94964,2.75934 4.94964,0.74461 z m -21.17661,-2.62176 5.1864,-1.5402 -1.53058,-2.9598 c -1.81107,-3.50225 -2.561,-3.65975 -4.28457,-0.89988 -1.84137,2.94851 -7.56252,2.37032 -8.01419,-0.80993 -0.29523,-2.07873 0.0652,-2.25 4.7353,-2.25 h 5.05485 l -1.98156,-3.25 c -1.39977,-2.29579 -2.00914,-5.15842 -2.07549,-9.75 -0.0976,-6.75043 -0.81315,-5.77574 -2.35203,3.20357 -0.3491,2.03696 -2.38143,6.30202 -4.51629,9.4779 -2.13486,3.17589 -3.63936,6.16622 -3.34335,6.64519 0.49547,0.80168 6.05383,3.54381 7.36662,3.6342 0.31267,0.0215 2.90238,-0.65395 5.75489,-1.50105 z m -16.21511,-8.89556 c 4.66455,-5.58029 7.84755,-10.56627 6.73992,-10.55766 -3.18813,0.0248 -13.89088,11.13682 -12.98937,13.48613 0.93242,2.42984 2.3101,1.78426 6.24945,-2.92847 z m 29.31265,3.50578 c 1.78084,-1.12714 -0.0664,-4.21548 -6.17529,-10.32439 -6.53909,-6.53909 -6.13404,-2.31457 0.66784,6.96536 3.38398,4.61682 3.45334,4.65913 5.50745,3.35903 z m -18.67093,35.26769 c -1.96747,-0.79389 -1.51813,-4.33772 0.55,-4.33772 2.70046,0 4.40338,2.05002 3.05376,3.67621 -1.15859,1.39601 -1.58809,1.47485 -3.60376,0.66151 z m 9.13404,-1.77931 c -0.98023,-2.55443 0.074,-5.05841 2.12966,-5.05841 3.67014,0 2.8839,6.41259 -0.79508,6.48469 -0.42977,0.008 -1.03032,-0.6334 -1.33458,-1.42628 z m -6.70815,-5.96064 c -0.70342,-1.83309 0.14546,-2.59777 2.88379,-2.59777 2.1633,0 3.90994,2.19705 2.70475,3.40223 -1.14841,1.14841 -5.05494,0.58607 -5.58854,-0.80446 z m -61.57305,-23.19416 -2.04231,-2.59638 -2.66513,2.09638 c -3.19688,2.51467 -4.70825,2.62928 -6.4824,0.49157 -1.14675,-1.38176 -0.90373,-1.9725 1.74837,-4.25 1.69414,-1.45485 3.34984,-3.43418 3.67933,-4.3985 0.55646,-1.62858 0.42829,-1.64142 -1.80133,-0.18052 -1.32022,0.86504 -3.11705,2.66654 -3.99294,4.00332 -2.04617,3.12285 -4.28624,3.09567 -5.72838,-0.0695 -0.6265,-1.375 -1.89462,-2.5 -2.81805,-2.5 -0.92343,0 -2.19155,1.125 -2.81805,2.5 -0.62649,1.375 -1.75497,2.5 -2.50774,2.5 -2.24102,2e-5 -13.67421,-11.49561 -13.67421,-13.74886 0,-1.12178 1.30554,-3.4372 2.90121,-5.14536 3.63335,-3.88952 8.54326,-4.33809 9.45188,-0.86353 0.55629,2.12723 0.83152,2.0051 5.36663,-2.38124 2.62916,-2.5429 5.34278,-4.4144 6.03028,-4.15889 2.24505,0.83438 1.31872,3.83896 -2.25,7.2979 -3.26934,3.16876 -4.54158,6 -2.69617,6 0.44211,0 2.33039,-1.575 4.19617,-3.5 3.66094,-3.77713 6.41389,-4.46976 7.41336,-1.86518 0.4277,1.11457 -0.70505,2.86488 -3.55954,5.50013 -2.30279,2.12593 -3.92086,4.13134 -3.59571,4.45649 1.1265,1.1265 4.42772,-0.6359 5.72237,-3.05497 1.91262,-3.57376 3.85237,-3.8549 7.19442,-1.04276 1.6382,1.37846 3.56733,2.50629 4.28694,2.50629 1.80728,0 11.83455,-8.38874 15.02113,-12.56656 2.82824,-3.70802 4.91169,-4.20587 7.95816,-1.90164 2.87054,2.17117 3.57703,1.80899 2.91623,-1.49501 -0.82516,-4.12577 0.28448,-7.77474 2.76853,-9.10417 1.83412,-0.98158 2.66175,-0.57603 6.4882,3.17935 2.41225,2.36744 4.38591,4.66075 4.38591,5.09624 0,1.49924 -3.19752,0.78733 -6.26083,-1.39394 l -3.06957,-2.18572 0.75869,2.43572 c 2.03767,6.54182 1.86192,7.60874 -1.94805,11.82592 -4.57858,5.06795 -12.67928,11.10981 -14.8956,11.10981 -3.36905,0 -2.88288,-3.02914 1.04352,-6.50184 2.12951,-1.88344 4.65934,-3.69635 5.62184,-4.02869 0.9625,-0.33233 1.75,-1.22236 1.75,-1.97784 0,-3.04549 -2.11605,-2.28035 -6.88648,2.49008 -2.76005,2.76006 -5.45062,5.01829 -5.97904,5.01829 -0.57063,0 -0.48846,1.25356 0.20238,3.08718 1.04145,2.76418 0.92262,3.28206 -1.13573,4.94986 -2.93996,2.38214 -5.53657,1.49802 -4.92936,-1.67839 0.38547,-2.01644 0.0513,-2.35865 -2.30345,-2.35865 -1.58911,0 -3.01113,0.66918 -3.36133,1.58179 -1.00391,2.61613 -0.70303,3.41821 1.28223,3.41821 1.03906,0 2.95156,0.89086 4.25,1.97968 2.01478,1.68955 2.14094,2.12698 0.86078,2.98469 -2.36406,1.58393 -3.70211,1.22979 -5.89716,-1.56076 z m -24.10284,-11.47693 c 0,-2.56265 -3.30983,-2.27193 -3.81184,0.3348 -0.2311,1.2 0.30742,1.73852 1.73852,1.73852 1.43109,0 2.07332,-0.64223 2.07332,-2.07332 z m -6,-5.46186 c 0,-2.22531 -0.24446,-2.40436 -2,-1.46482 -2.06386,1.10455 -2.49194,2.17473 -1.33333,3.33333 1.52881,1.52881 3.33333,0.51728 3.33333,-1.86851 z m 144,17.21352 c 0,-1.84796 -1.58053,-3.22521 -7.74625,-6.75 -11.87222,-6.78706 -20.25375,-15.25865 -20.25375,-20.47139 0,-3.60694 2.85484,-3.87572 4.80288,-0.45218 1.94217,3.41324 4.19712,3.94794 4.19712,0.99523 0,-3.47197 3.80769,-2.29347 9.30986,2.88144 2.85458,2.68479 6.94044,6.05979 9.07969,7.5 3.82341,2.57404 8.61045,3.5136 8.61045,1.68999 0,-0.51072 0.69045,-1.61903 1.53434,-2.46292 2.01009,-2.01008 5.50601,-0.50308 7.78577,3.35625 1.39776,2.36621 5.67989,4.89265 5.67989,3.35111 0,-1.19376 -9.36233,-11.31587 -10.46649,-11.31587 -0.67294,0 -2.03802,0.9 -3.03351,2 -2.47767,2.73779 -5.31108,2.51053 -10.55422,-0.84652 -4.20493,-2.69232 -18.06302,-16.11429 -18.77911,-18.18813 -0.18334,-0.53094 0.73784,-0.96535 2.04705,-0.96535 1.47672,0 3.88104,1.5555 6.33333,4.09741 5.34913,5.5446 14.82323,11.91198 17.64808,11.86096 2.10022,-0.0379 1.9497,-0.35691 -1.69513,-3.59249 -2.2,-1.95298 -5.65776,-4.40322 -7.68392,-5.44499 -5.48327,-2.81927 -6.74781,-5.18225 -6.1052,-11.40851 0.52655,-5.10181 0.40591,-5.43036 -3.58299,-9.75781 -4.03698,-4.3796 -5.07383,-7.05191 -3.18827,-8.21725 0.51679,-0.3194 2.60521,1.21947 4.64094,3.4197 6.42282,6.94183 6.74211,7.68173 6.07387,14.07513 l -0.60822,5.81909 3.21429,0.70597 c 1.76785,0.38829 5.67758,2.90148 8.68828,5.58488 3.0107,2.68339 7.29137,6.073 9.51261,7.53246 2.22123,1.45946 5.40701,4.17673 7.0795,6.03837 2.09125,2.32776 3.57011,3.18171 4.73554,2.7345 1.37226,-0.52659 0.46535,-1.86756 -4.76721,-7.04886 -3.55402,-3.51921 -6.81887,-6.39856 -7.25521,-6.39856 -0.43635,0 -3.48451,-2.02027 -6.77368,-4.48949 -3.28918,-2.46922 -6.71273,-4.49422 -7.60789,-4.5 -3.07863,-0.0199 -4.10859,-2.49027 -2.82477,-6.77528 1.41867,-4.73511 -0.30179,-8.89053 -5.16191,-12.4675 -3.34167,-2.45941 -7.26962,-8.63004 -8.28652,-13.01773 -0.52716,-2.27456 -0.30169,-2.75 1.30416,-2.75 1.34595,0 2.30954,1.11518 3.14133,3.63554 1.53279,4.6444 12.63446,16.08527 14.14379,14.57594 0.74319,-0.74319 0.4051,-1.97344 -1.13778,-4.14022 -2.27363,-3.19303 -2.42794,-6.11347 -0.3594,-6.80217 0.65523,-0.21816 1.96189,1.09455 2.90367,2.91713 2.01818,3.90566 3.92322,5.49522 7.58767,6.33115 1.47547,0.33658 4.62547,2.29653 7,4.35544 2.37452,2.05892 6.05059,4.79481 8.16904,6.07976 3.17482,1.9257 4.0069,2.09123 4.73469,0.94186 1.38768,-2.1915 1.08834,-2.65049 -1.41632,-2.1717 -1.69382,0.3238 -2.79215,-0.26008 -4.02305,-2.13867 -1.06641,-1.62754 -2.61001,-2.58406 -4.17009,-2.58406 -2.24892,0 -2.47605,-0.39125 -2.46718,-4.25 0.0192,-8.3383 7.78335,-19.48894 16.82621,-24.16518 4.01373,-2.07558 5.16402,-1.99927 5.16402,0.3426 0,1.98006 -4.34537,6.07258 -6.44777,6.07258 -1.69942,0 -6.05434,4.92353 -7.9606,9 -1.59299,3.40657 -1.58937,3.43437 0.13584,1.04132 3.91304,-5.42778 6.65893,-8.18785 9.64165,-9.6914 4.61638,-2.32707 8.63583,-6.43609 8.59544,-8.78701 -0.0195,-1.1346 -0.62608,-3.12821 -1.34798,-4.43025 -1.05027,-1.8943 -1.43049,-2.05999 -1.90278,-0.82922 -0.32463,0.84597 -3.26025,3.3513 -6.52361,5.56741 -3.26336,2.2161 -8.52112,6.97675 -11.68391,10.57921 -3.16279,3.60247 -6.14557,6.54994 -6.6284,6.54994 -0.48283,0 -0.87788,-1.31888 -0.87788,-2.93085 0,-2.42007 1.52118,-4.29355 8.72853,-10.75 4.80068,-4.30053 11.01792,-10.13507 13.81607,-12.96564 4.22152,-4.27044 5.54441,-5.05915 7.77147,-4.63342 2.34604,0.44847 2.68393,0.19108 2.68393,-2.0445 0,-1.40665 -0.45379,-2.83802 -1.00843,-3.1808 -0.55463,-0.34278 -5.08825,3.11816 -10.07469,7.69098 -9.57739,8.78295 -12.64979,10.06767 -14.41688,6.02839 -1.33462,-3.05073 -4.59933,-2.51354 -6.2952,1.03584 -1.79344,3.75359 -3.44336,3.45626 -6.67175,-1.20231 -3.7626,-5.42943 -11.15863,-12.22205 -23.25677,-21.35935 -10.80918,-8.1638 -12.27628,-9.87768 -12.27628,-14.3413 0,-2.72359 0.12565,-2.66284 5.75,2.78006 3.1625,3.06048 10.13926,9.04781 15.50391,13.30518 5.36466,4.25737 11.38137,9.72676 13.37047,12.1542 1.9891,2.42744 4.22578,4.41352 4.9704,4.41352 0.74462,0 2.06614,-1.37741 2.93672,-3.06091 1.26169,-2.43984 2.12923,-2.99782 4.27568,-2.75 2.20743,0.25487 2.68571,0.80661 2.6534,3.06091 -0.0318,2.21802 0.40761,2.75 2.27144,2.75 1.49503,0 2.71335,-0.88337 3.45093,-2.50219 0.62704,-1.3762 4.23034,-4.98153 8.00733,-8.01183 5.41496,-4.34446 7.3743,-5.38238 9.26489,-4.90788 2.83282,0.711 5.02772,3.00341 6.03587,6.30403 0.50264,1.64559 0.9651,1.99785 1.49572,1.1393 1.32424,-2.14268 -0.0854,-4.9193 -3.60044,-7.09169 -3.81888,-2.3602 -3.85748,-2.48155 -1.88632,-5.92974 0.78602,-1.375 1.44508,-3.75543 1.46456,-5.28984 0.0396,-3.11919 -2.9833,-9.65089 -5.39147,-11.6495 -2.02637,-1.68174 -2.03753,-5.06066 -0.0167,-5.06066 2.06186,0 6.90893,5.30074 10.51577,11.5 3.3477,5.75385 3.54182,7.1641 1.32357,9.61524 -1.48313,1.63884 -1.36078,2.30102 1.61994,8.76778 1.77332,3.84728 3.82593,7.22595 4.56134,7.50815 1.06084,0.40708 1.12499,-0.0448 0.31046,-2.18721 -0.56466,-1.48516 -1.60687,-3.37612 -2.31602,-4.20213 -3.17105,-3.69357 -2.20232,-13.00183 1.35313,-13.00183 2.91686,0 4.70092,2.76881 3.26528,5.06763 -0.65441,1.04788 -1.18984,2.54026 -1.18984,3.3164 0,2.18422 10.81677,19.25177 15.13791,23.88577 4.39894,4.71743 4.5698,5.28108 2.01529,6.64821 -2.00883,1.07509 -4.1532,-0.27664 -4.1532,-2.61801 0,-0.715 -0.9,-1.3 -2,-1.3 -2.31427,0 -2.72759,2.78357 -0.53807,3.62377 4.7274,1.81407 1.21873,10.11202 -6.85239,16.20577 -6.17728,4.6639 -6.80272,4.84754 -8.70466,2.55584 -1.14961,-1.38519 -1.00218,-1.88817 1.03754,-3.53984 1.30766,-1.05888 3.05009,-2.30159 3.87206,-2.7616 0.93321,-0.52224 1.23889,-1.50247 0.81391,-2.60995 -0.6284,-1.63759 -0.8646,-1.60071 -3.08046,0.48098 -2.68007,2.5178 -2.46795,2.59036 -10.70387,-3.66154 -3.11077,-2.36139 -5.92327,-4.29343 -6.25,-4.29343 -1.61233,0 -0.28769,2.97072 1.99014,4.46321 2.29378,1.50294 2.42286,1.88111 1.14857,3.36501 -0.7896,0.91948 -2.47364,3.56344 -3.74231,5.87546 -2.30318,4.19731 -4.36228,5.80259 -6.0807,4.74055 -1.48395,-0.91713 -1.00122,-3.77046 1.09024,-6.44423 2.68522,-3.43286 2.57793,-6 -0.25078,-6 -1.58323,0 -3.80763,1.97423 -7.5,6.65648 -2.88707,3.66107 -5.24922,7.26107 -5.24922,8 0,2.1588 2.45837,1.55164 4.84874,-1.19753 1.21518,-1.39757 2.60417,-2.29707 3.08665,-1.99888 1.38786,0.85774 2.1151,9.51909 1.30481,15.53993 -0.73771,5.4815 -0.75282,5.50104 -4.4902,5.81037 -4.02255,0.33292 -4.63906,1.20689 -2.25,3.18963 2.05759,1.70765 1.88036,4.3458 -0.43256,6.43897 -3.74303,3.3874 0.20029,6.18741 4.3207,3.06797 1.43733,-1.08816 2.39236,-1.17077 4,-0.34601 3.01616,1.54737 7.61186,6.00451 7.61186,7.38236 0,4.11088 -14.25338,17.45671 -18.6438,17.45671 -2.94561,0 -3.02001,-1.3153 -0.18102,-3.20032 1.42661,-0.94724 1.95363,-2.02163 1.53139,-3.12197 -0.944,-2.46003 -3.21786,-2.04572 -4.52566,0.82459 -1.18547,2.60182 -6.63173,6.48746 -9.10217,6.49396 -0.78169,0.002 -2.22001,-0.71912 -3.19626,-1.60262 -1.63733,-1.48176 -2.00445,-1.44298 -4.73311,0.5 -4.05031,2.88408 -7.14937,2.79075 -7.14937,-0.2153 z m 7,-5.60079 c 0,-1.34468 -1.12702,-2.27771 -3.75,-3.10454 -4.58714,-1.44598 -10.0387,-4.88388 -15.34188,-9.67498 -2.68356,-2.42443 -4.32687,-3.27928 -5.0034,-2.60275 -1.42285,1.42285 5.21634,7.02607 11.74758,9.91449 2.89273,1.27931 6.00611,3.46546 6.91862,4.85812 1.98589,3.03086 5.42908,3.41751 5.42908,0.60966 z m 11,1.09676 c 0,-0.86659 -3.61105,-4.37337 -5.75172,-5.58563 -0.68845,-0.38986 -0.3065,0.89319 0.84877,2.85124 1.88103,3.18811 4.90295,4.87344 4.90295,2.73439 z m 16.32466,-4.8323 c 0.75703,-0.75703 -1.13576,-3.34201 -2.4471,-3.34201 -0.48266,0 -0.87756,0.9 -0.87756,2 0,1.92166 1.95562,2.71105 3.32466,1.34201 z m 5.67534,-6.71957 c 0,-2.21555 -2.87492,-4.14752 -4.2,-2.82244 -0.82032,0.82032 -0.77673,1.52312 0.16483,2.65762 1.58911,1.91476 4.03517,2.01467 4.03517,0.16482 z m -14.53731,-13.56207 c 0.59921,-0.96954 -7.66681,-9.21929 -12.32807,-12.30378 -1.44904,-0.95888 -3.64712,-1.74638 -4.88462,-1.75 -2.33122,-0.007 -2.67757,-0.72879 -1.64301,-3.4248 1.29394,-3.37195 6.35689,-1.61229 13.12067,4.56016 4.29356,3.9182 5.72355,4.55503 6.69579,2.9819 0.29782,-0.48188 -1.15298,-2.05042 -3.22401,-3.48564 -2.07103,-1.43522 -5.52947,-4.41596 -7.68542,-6.62385 -5.06575,-5.1878 -8.68174,-5.42762 -11.52498,-0.76436 -1.08986,1.7875 -1.96849,3.925 -1.95252,4.75 0.016,0.825 3.67347,3.97305 8.12775,6.99566 4.45428,3.02261 9.05202,6.50234 10.21721,7.73272 2.25277,2.37882 4.13008,2.87095 5.08121,1.33199 z M 516.7443,334.0847 c 0.83815,-1.42605 -4.45014,-8.3926 -7.92883,-10.44508 -3.86808,-2.28222 -4.07041,-4.28613 -0.66095,-6.54612 2.10038,-1.39226 2.33793,-1.2958 4,1.6242 1.67361,2.94027 4.26701,4.2447 4.26701,2.14624 0,-1.36576 -6.21304,-10.02924 -7.1925,-10.02924 -0.44413,0 -0.8075,0.65605 -0.8075,1.45789 0,0.80184 -1.8,3.35009 -4,5.66277 -2.2,2.31268 -4,4.30972 -4,4.43786 0,0.12814 2.25365,1.67916 5.00812,3.44669 2.75447,1.76754 5.77649,4.51445 6.71561,6.10425 1.63944,2.77535 3.67037,3.72061 4.59904,2.14054 z m -11.32277,-1.27475 c 0,-0.56361 -1.06187,-1.42847 -2.35971,-1.92191 -1.29784,-0.49344 -3.24985,-2.11913 -4.3378,-3.61265 -1.08796,-1.49352 -2.52206,-2.53417 -3.18691,-2.31255 -1.78349,0.5945 5.64531,8.87186 7.96234,8.87186 1.05715,0 1.92208,-0.46114 1.92208,-1.02475 z m -5.90437,-16.04334 c 1.5974,-1.13746 2.90437,-2.93746 2.90437,-4 0,-1.88651 -0.047,-1.88491 -2,0.0681 -1.24568,1.24568 -3.33333,2 -5.53518,2 -3.22531,0 -3.44136,0.17531 -2.46482,2 1.36616,2.55268 3.44308,2.53275 7.09563,-0.0681 z m -222.26298,70.20987 -3.1989,-2.85822 3.93312,-4.80818 c 9.26414,-11.32523 12.10467,-13.21371 16.47555,-10.95345 5.92045,3.06159 5.2732,6.53145 -2.84058,15.22807 -6.77119,7.25759 -9.35896,7.86842 -14.36919,3.39178 z m 11.02338,-6.68299 c 5.78044,-7.72945 5.59552,-10.44841 -0.28503,-4.19094 -1.68905,1.79732 -4.16233,3.96735 -5.49618,4.82229 -1.63463,1.04774 -2.21532,2.10134 -1.78139,3.23215 1.12845,2.94069 3.3061,1.8282 7.5626,-3.8635 z m 203.97512,7.78595 c -3.23716,-2.11626 -11.83115,-12.68977 -11.83115,-14.5563 0,-2.46516 4.49319,-5.68844 7.92958,-5.68844 3.57387,0 7.03092,3.09672 13.57156,12.15699 3.64837,5.05382 3.46206,5.79675 -2.1854,8.71451 -2.96937,1.53413 -4.35689,1.41794 -7.48459,-0.62676 z m 6.16885,-4.00791 c 0,-1.72022 -10.66271,-10.90745 -11.58675,-9.98341 -0.25605,0.25604 1.34623,2.65802 3.56061,5.33773 2.21437,2.6797 4.02614,5.21794 4.02614,5.64052 0,0.42258 0.9,0.76833 2,0.76833 1.24379,0 2,-0.66667 2,-1.76317 z m -171.19654,2.27559 c -4.04949,-2.7517 -5.78507,-6.28771 -3.71435,-7.56749 1.42964,-0.88357 4.91089,0.57324 4.91089,2.05507 0,0.5113 0.91511,1.41938 2.03357,2.01797 1.77628,0.95063 2.78218,0.32802 7.95013,-4.92079 3.2541,-3.30501 7.73899,-7.15958 9.96642,-8.56569 4.13363,-2.60945 5.09261,-4.80297 2.72447,-6.2318 -3.33587,-2.0127 -2.43849,-9.78603 1.05212,-9.1138 1.79993,0.34663 3.43711,6.08128 3.6583,12.81411 0.1013,3.08342 -0.32098,3.71314 -3.54795,5.29077 -2.01462,0.98492 -5.35675,3.85783 -7.42696,6.38424 -3.1999,3.90506 -11.5155,10.32499 -13.37375,10.32499 -0.31464,0 -2.21944,-1.11941 -4.23289,-2.48758 z m -60.35767,-7.86663 c -3.0047,-3.0047 -3.44579,-4.08296 -3.44579,-8.42335 0,-3.10549 -0.53997,-5.42569 -1.43572,-6.16909 -2.2264,-1.84775 -2.85716,-6.66401 -1.57352,-12.01482 1.33528,-5.56609 2.92144,-7.27546 8.37806,-9.02887 3.18952,-1.02491 4.02085,-1.00321 4.73469,0.12357 1.376,2.17201 1.07538,2.83358 -1.85351,4.07905 -5.25009,2.23254 -7.25,4.80887 -7.25,9.33959 0,4.39076 0.99028,5.78968 4.75,6.71008 1.92847,0.4721 2.25,0.15098 2.25,-2.24716 0,-2.15052 -0.57851,-2.94317 -2.5,-3.42543 -2.57418,-0.64608 -3.103,-2.08972 -1.6216,-4.42685 1.26546,-1.99644 5.48059,-0.98392 6.60873,1.58749 0.54292,1.2375 1.53496,2.25 2.20454,2.25 0.66958,0 2.30478,-1.0125 3.63378,-2.25 3.4717,-3.23269 7.77558,-6.75 8.2595,-6.75 1.11684,0 0.21718,5.83749 -1.21473,7.88182 -2.0262,2.89281 -10.1304,8.11818 -12.59075,8.11818 -1.0145,0 -2.23858,1.07735 -2.74878,2.41928 -0.5059,1.33061 -1.66599,2.83687 -2.57799,3.34725 -1.87423,1.04888 -1.63531,4.34044 0.36337,5.00596 0.73018,0.24314 1.56583,-0.51686 1.8771,-1.70718 0.30857,-1.17997 1.85384,-2.81394 3.43393,-3.63104 1.5801,-0.8171 2.8729,-1.9137 2.8729,-2.4369 0,-1.74233 4.49368,-3.94254 6.81331,-3.33594 1.24766,0.32627 2.13757,0.94024 1.97758,1.36437 -0.15999,0.42414 -3.80279,4.43745 -8.0951,8.91847 l -7.80422,8.1473 z m 235.66132,-3.73981 c -3.51608,-3.89103 -7.90358,-7.79502 -9.75,-8.67551 -3.76789,-1.79678 -4.13378,-2.69644 -1.65974,-4.08099 2.28879,-1.28086 6.02579,0.224 9.9469,4.00554 2.94132,2.83663 6.20952,3.53162 6.65855,1.41594 0.3315,-1.56193 -12.25749,-9.57096 -15.04411,-9.57096 -1.70751,0 -3.52387,1.091 -5.24129,3.1482 -1.44553,1.73151 -3.17612,2.96557 -3.84576,2.74235 -1.46008,-0.48669 2.8226,-9.67039 5.74151,-12.31197 1.76873,-1.60068 2.10241,-1.52638 6.23884,1.38924 4.40196,3.10279 12.85776,5.47504 11.46124,3.21543 -0.38373,-0.6209 -2.45844,-1.60302 -4.61047,-2.1825 -5.73362,-1.5439 -7.15706,-3.40037 -6.80262,-8.87202 0.25018,-3.86212 0.63108,-4.62873 2.29984,-4.62873 1.57161,0 2.0643,0.76674 2.30021,3.57964 0.28361,3.38168 0.69836,3.76529 7.5,6.93668 3.95988,1.84638 7.56282,3.54405 8.00653,3.77261 0.44371,0.22856 -0.1155,-1.30516 -1.2427,-3.40826 -1.7544,-3.27332 -1.84837,-4.02492 -0.65271,-5.22057 1.81194,-1.81194 3.45385,-0.72701 5.1907,3.42986 2.12611,5.08848 1.72251,10.18054 -1.20251,15.1717 -1.89194,3.22836 -2.30063,4.73723 -1.5,5.53786 0.60527,0.60527 1.10048,1.87844 1.10048,2.82928 0,1.80345 -6.0822,8.87839 -7.61808,8.8615 -0.48505,-0.005 -3.75872,-3.19328 -7.27481,-7.08432 z m 9.85771,-0.84024 c 2.08789,-3.90127 0.93962,-5.17878 -2.43617,-2.71035 -1.13487,0.82984 -1.6089,1.9931 -1.22251,3 0.84436,2.20039 2.3916,2.0779 3.65868,-0.28965 z m 1.84702,-13.32722 c 0.24799,-1.2877 -0.33248,-1.73852 -2.23852,-1.73852 -2.44469,0 -3.44336,1.79662 -1.87208,3.3679 1.20411,1.20412 3.76003,0.19099 4.1106,-1.62938 z m -208.72266,17.42812 c -0.59905,-1.11934 -1.08918,-2.69312 -1.08918,-3.49731 0,-1.97685 6.61509,-7.66933 8.91235,-7.66933 1.67484,0 4.91373,2.69135 3.98015,3.30729 -0.21587,0.14242 -1.68571,0.9124 -3.26629,1.71106 -1.58059,0.79866 -3.90296,2.96666 -5.16082,4.81778 -2.18687,3.21826 -2.33473,3.27653 -3.37621,1.33051 z m 22.00204,-2.79115 c -2.88254,-1.94121 -6.6439,-5.51983 -8.3586,-7.95248 -1.71469,-2.43266 -3.5935,-4.41149 -4.17512,-4.39741 -0.58163,0.0141 -3.5325,1.60951 -6.5575,3.54541 -5.48843,3.51242 -5.50315,3.51543 -7,1.4326 -0.825,-1.14797 -2.97726,-3.92865 -4.7828,-6.17929 -1.80554,-2.25063 -3.09167,-4.28318 -2.85808,-4.51677 0.73073,-0.73073 8.08152,2.679 9.32435,4.32517 0.6509,0.86216 1.67132,1.26604 2.2676,0.89752 0.67065,-0.41448 -0.63888,-2.68686 -3.43346,-5.95795 -2.48469,-2.90836 -4.51761,-5.8019 -4.51761,-6.4301 0,-2.68508 3.9189,-0.75891 8.62256,4.23806 5.06192,5.37757 5.06582,5.37944 7.82696,3.75 2.74106,-1.61759 2.78694,-1.59918 5.9065,2.36975 5.22213,6.64398 9.65851,10.5 12.08032,10.5 3.47101,0 7.56271,-3.68808 7.56924,-6.82258 0.0112,-5.36801 2.07068,-9.78998 6.97267,-14.97109 l 5.00849,-5.29368 6.08552,6.50545 c 9.68722,10.35566 12.0554,13.69411 11.72514,16.52905 -0.42944,3.68628 -4.18235,3.5509 -4.61085,-0.16633 -0.18667,-1.61939 -2.65854,-5.3069 -6.11159,-9.11721 -6.25026,-6.89691 -6.70709,-6.9878 -11.82496,-2.35273 -1.70712,1.54608 -2.2509,3.14177 -2.25374,6.61343 -0.004,5.48481 -2.25427,9.52795 -7.70323,13.8436 l -3.96085,3.13705 z m -10.09122,1.12451 c -0.9481,-1.14239 -0.96853,-1.83299 -0.0857,-2.89677 2.13882,-2.57711 7.27579,0.66212 5.52991,3.48701 -0.87551,1.4166 -4.06575,1.07073 -5.44423,-0.59024 z m 103.24429,-0.0334 c -1.24064,-0.87342 -2.95657,-2.94336 -3.81318,-4.59985 l -1.55747,-3.01182 2.80579,0.32252 c 2.92554,0.33628 5.76666,4.41551 5.13852,7.37778 -0.27876,1.31459 -0.59599,1.30367 -2.57366,-0.0886 z m -23.24429,-0.94628 c 0,-0.81382 1.6875,-2.34938 3.75,-3.41237 4.16188,-2.14497 7.71618,-5.74771 14.22603,-14.4199 4.13397,-5.50714 7.51933,-8.68805 9.24648,-8.68805 1.41841,0 0.80483,2.89455 -0.99864,4.71104 -0.97687,0.98393 -4.38268,5.25447 -7.56848,9.49008 -7.61327,10.12209 -18.65539,17.41383 -18.65539,12.3192 z m -69.81731,-9.77032 c -7.67869,-5.25276 -29.16345,-42.83128 -24.43269,-42.73469 1.76894,0.0361 3.16947,1.91719 6.68946,8.98469 4.18601,8.40474 12.94567,21.81962 17.46727,26.75 2.88948,3.15072 7.09327,4.41035 7.09327,2.12544 0,-0.61851 -2.30275,-3.35576 -5.11722,-6.08278 -3.46706,-3.35932 -4.78941,-5.28603 -4.10067,-5.97477 1.55837,-1.55837 4.44147,-0.19734 8.59714,4.05845 6.52141,6.67853 6.05544,15.12366 -0.83446,15.12366 -1.14012,0 -3.55307,-1.0125 -5.3621,-2.25 z m 96.81731,-4.61535 c 0,-3.37271 1.86274,-7.13465 3.53275,-7.13465 1.24303,0 1.51632,0.91114 1.27475,4.25 -0.25563,3.53302 -0.68708,4.30391 -2.5575,4.56955 -1.69128,0.2402 -2.25,-0.17819 -2.25,-1.6849 z m -137,-1.57563 c 0,-3.00004 1.59798,-4.13756 3.5438,-2.52267 2.43494,2.02082 1.8161,4.96365 -1.0438,4.96365 -1.98388,0 -2.5,-0.50393 -2.5,-2.44098 z m 22.7545,-6.79995 c -1.87392,-1.79249 -5.28311,-6.04366 -7.57596,-9.44705 -2.29286,-3.40339 -4.62536,-6.47014 -5.18334,-6.81499 -0.55798,-0.34485 -2.19585,0.30224 -3.63971,1.43799 -3.37567,2.65529 -4.18596,2.60158 -7.41439,-0.49145 l -2.66834,-2.55643 -2.57182,3.05643 c -3.00159,3.56719 -4.70286,3.81678 -7.20094,1.05643 -2.42697,-2.68177 -3.17327,-2.53251 -5,1 -2.28744,4.42342 -4.98129,3.88738 -8.52202,-1.69578 -3.5339,-5.57238 -3.83851,-8.30422 -0.92596,-8.30422 1.38858,0 2.39589,0.98643 3.11562,3.05106 1.25866,3.61058 3.96288,3.63213 4.81126,0.0383 0.31162,-1.32006 1.37412,-2.8927 2.3611,-3.49475 1.47168,-0.89772 2.19393,-0.59992 4.01482,1.65536 2.62599,3.25246 5.64518,3.65358 5.64518,0.75 0,-1.28986 -0.66667,-2 -1.87756,-2 -2.39924,0 -4.51854,-2.52539 -3.7657,-4.48727 0.73935,-1.9267 3.9288,-1.93355 7.63617,-0.0164 1.59147,0.82299 3.13002,1.11379 3.41898,0.64623 0.28897,-0.46756 -0.58549,-1.35626 -1.94325,-1.97489 -3.2275,-1.47055 -3.3841,-5.16919 -0.21864,-5.16393 5.20664,0.009 15.21793,9.00809 24.04944,21.61875 3.12859,4.46736 6.36609,8.68496 7.19445,9.37244 1.67091,1.38673 2.01376,4.57329 0.58693,5.45512 -0.50555,0.31245 -2.4524,-0.89849 -4.32632,-2.69098 z m -17.7545,-21.29045 c 0,-0.84227 -0.70525,-1.80202 -1.56722,-2.13279 -1.88073,-0.7217 -3.93166,1.04795 -2.98663,2.57704 1.01871,1.6483 4.55385,1.30343 4.55385,-0.44425 z m -18.33333,20.86471 c -1.69217,-1.69217 -0.50175,-4.56931 2.33333,-5.63943 1.65,-0.62281 3,-1.62271 3,-2.22201 0,-0.5993 0.6263,-1.94615 1.39179,-2.99301 1.18252,-1.61719 1.6336,-1.7027 3,-0.56869 2.3443,1.9456 2.01971,3.24907 -1.96971,7.90981 -3.30956,3.86647 -6.12626,5.14249 -7.75541,3.51333 z m 63.33333,-1.68896 c 0,-1.59052 1.22692,-3.34281 3.617,-5.16581 2.18665,-1.66784 4.56356,-4.89915 6.0106,-8.17116 2.42574,-5.48503 4.3724,-6.24133 4.3724,-1.69872 0,5.01415 -5.68152,13.0977 -11.25,16.00628 -2.63617,1.37694 -2.75,1.33677 -2.75,-0.97059 z m -46.11711,-4.00205 c -1.39583,-3.06352 -0.48196,-5.90684 1.7569,-5.46623 2.54491,0.50085 4.05684,3.49597 2.78365,5.51439 -1.69348,2.68473 -3.30314,2.66766 -4.54055,-0.0482 z m 25.79165,-7.02151 c -5.17275,-8.16567 -5.58757,-9.62081 -2.74263,-9.62081 2.08112,0 4.5553,3.02673 7.93751,9.71016 4.99821,9.87677 1.07567,9.8093 -5.19488,-0.0893 z m 14.99213,6.71252 c -1.43569,-1.43568 -0.62598,-4.33333 1.21089,-4.33333 2.2521,0 4.55303,2.49428 3.64951,3.9562 -0.72022,1.16533 -3.83084,1.4067 -4.8604,0.37713 z m -5,-6 c -0.36667,-0.36666 -0.66667,-1.97628 -0.66667,-3.57692 0,-3.62694 4.84668,-8.75641 8.27366,-8.75641 1.67436,0 4.07105,-1.78396 7.72493,-5.75 5.61491,-6.0946 7.40079,-5.91229 4.16625,0.4253 -2.33431,4.57373 -4.29156,6.40138 -9.84448,9.19262 -3.0079,1.51195 -4.53603,3.08651 -5.45089,5.61651 -1.20184,3.32362 -2.70748,4.34423 -4.2028,2.8489 z m 11.33333,-2.89699 c 0,-1.75378 14.72092,-19.22809 20.39605,-24.21093 2.02278,-1.77602 5.88767,-4.34897 8.58866,-5.71766 2.70098,-1.36869 6.80761,-4.29285 9.12585,-6.49814 2.31823,-2.20529 4.39662,-4.00961 4.61863,-4.00961 0.22201,0 0.26126,1.19198 0.0872,2.64884 -0.24629,2.06177 -2.31111,4.03118 -9.31642,8.88592 -10.74717,7.44787 -14.91615,11.4158 -23.40227,22.27364 -6.09212,7.79481 -10.0977,10.42399 -10.0977,6.62794 z m 95.89289,-3.18634 c -2.49255,-2.6125 -6.28534,-7.11871 -8.42841,-10.01379 -2.14306,-2.89508 -6.57283,-7.17008 -9.84392,-9.5 -3.27108,-2.32992 -7.72814,-5.92371 -9.90458,-7.98621 -2.17643,-2.0625 -4.35288,-3.75 -4.83656,-3.75 -1.16588,0 -1.13198,-2.72588 0.0429,-3.45201 1.13105,-0.69903 18.42788,12.5931 26.42814,20.30927 7.49808,7.23183 13.96768,15.87122 13.26209,17.70995 -0.86613,2.2571 -1.87778,1.75769 -6.71969,-3.31721 z m -74.78713,0.84879 c -1.70817,-1.59567 -3.10576,-3.41801 -3.10576,-4.04966 0,-3.63469 5.53788,-10.06945 12,-13.94343 7.00128,-4.19721 6.78585,-1.9705 -0.48029,4.96432 -6.27742,5.99119 -7.37807,8.32402 -5.10984,10.83038 1.71555,1.89567 2.15276,5.0996 0.69589,5.0996 -0.49184,0 -2.29184,-1.30554 -4,-2.90121 z m -38.43909,-2.76546 c -1.36708,-1.36708 -0.53874,-3.20405 4.36685,-9.6842 5.0539,-6.67605 7.48241,-8.07417 8.66621,-4.98923 0.41435,1.07978 -0.23634,2.39036 -1.86184,3.75 -1.37434,1.14955 -4.00138,4.2276 -5.83787,6.8401 -3.34379,4.75672 -4.08923,5.32745 -5.33335,4.08333 z m 96.02792,-5.29981 c -3.14092,-3.29891 -6.83213,-6.73276 -8.20268,-7.63078 -2.14863,-1.40783 -3.56986,-5.40274 -1.92209,-5.40274 3.02702,0 18.88306,15.14137 18.15217,17.33402 -0.78862,2.36588 -2.60859,1.39087 -8.0274,-4.3005 z M 366.423,330.0847 c 0.004,-1.78405 9.84359,-10.25 11.91371,-10.25 3.71522,0 2.07249,3.08503 -3.84354,7.21815 -5.1353,3.58768 -8.07342,4.69149 -8.07017,3.03185 z m -102.6651,-1.09252 c -0.54024,-0.36161 -1.27281,-1.44498 -1.62793,-2.40748 -0.90208,-2.44497 -4.35402,-2.2133 -5.02093,0.33697 -0.70181,2.68373 -4.18751,2.18373 -4.18751,-0.60067 0,-1.28351 0.77653,-2.0968 2.19471,-2.29861 2.71878,-0.38688 2.13461,-2.76815 -1.42557,-5.81104 -1.81825,-1.55406 -2.30334,-2.69352 -1.80934,-4.25 0.99308,-3.12891 4.08425,-2.64162 5.5402,0.87335 0.68345,1.65 1.87717,3 2.65271,3 2.70583,0 2.46892,-2.84941 -0.58772,-7.06899 l -3.07924,-4.25076 2.40775,-4.09013 c 1.3794,-2.34323 3.30439,-4.2266 4.50713,-4.40967 2.7476,-0.41822 2.75235,2.02693 0.0126,6.46 l -2.08681,3.37652 3.58681,3.17551 c 1.97274,1.74654 3.5868,3.60362 3.5868,4.12685 0,0.52323 -1.125,1.99394 -2.5,3.26825 -3.01589,2.79504 -3.2087,4.99383 -0.5,5.70217 1.15334,0.3016 2,1.36401 2,2.50964 0,2.12405 -2.04592,3.44091 -3.66363,2.35809 z m 49.23506,-2.72891 c -2.17913,-2.17913 -1.50587,-3.92857 1.5119,-3.92857 1.88889,0 2.41667,0.52778 2.41667,2.41667 0,3.01777 -1.74944,3.69103 -3.92857,1.5119 z m 148.42857,-1.32158 c 0,-2.60942 1.44937,-4.10699 3.9748,-4.10699 1.739,0 1.99754,3.37308 0.39432,5.14462 -2.49813,2.7604 -4.36912,2.31606 -4.36912,-1.03763 z m -163.8,0.69301 c -0.66,-0.66 -1.2,-3.48075 -1.2,-6.26833 0,-4.46431 -0.49083,-5.66203 -4.11851,-10.05 -4.09653,-4.95508 -5.88149,-8.30764 -5.88149,-11.04677 0,-2.76047 2.68747,-1.39798 5.80489,2.94294 1.92822,2.685 4.89391,5.20044 7.66952,6.50513 3.14414,1.47792 4.52559,2.73622 4.52559,4.12215 0,1.32821 -0.66838,1.99488 -2,1.99488 -1.79487,0 -2,0.66667 -2,6.5 0,6.50401 -0.5517,7.5483 -2.8,5.3 z m 102.40374,-2.39024 c -0.81141,-2.11452 0.0941,-3.40976 2.38385,-3.40976 2.22944,0 5.26759,2.7781 4.46258,4.08062 -0.96318,1.55846 -6.18739,1.04655 -6.84643,-0.67086 z m -130.89489,-0.0342 c -1.29908,-1.29913 -0.75329,-5.37556 0.71972,-5.37556 1.88531,0 4.76076,2.92798 4.28774,4.36607 -0.43637,1.3267 -3.97655,2.04036 -5.00746,1.00945 z m -21.66861,-4.17021 c -1.37359,-4.94574 -1.31271,-11.82756 0.12847,-14.52105 0.6428,-1.20134 3.82448,-5.27013 7.07042,-9.04175 3.24593,-3.77162 6.39224,-7.93412 6.9918,-9.25 1.21727,-2.67162 5.76907,-3.41678 5.76907,-0.94443 0,0.79645 -2.3625,4.23829 -5.25,7.64854 -12.99356,15.3459 -12.04211,13.54407 -11.38175,21.55449 0.47028,5.7046 0.29739,7.26322 -0.8547,7.70532 -1.01113,0.38801 -1.75282,-0.55693 -2.47331,-3.15112 z m 58.03105,0.9279 c -1.34951,-2.52158 -0.31998,-5.32775 1.80454,-4.91861 1.05407,0.203 1.62417,1.33176 1.62417,3.21576 0,3.49236 -1.95213,4.46187 -3.42871,1.70285 z m 13.54478,0.34 c -0.88884,-0.88888 -1.61607,-2.27309 -1.61607,-3.07606 0,-0.80298 -0.7875,-1.73924 -1.75,-2.08057 -4.3964,-1.55913 -6.86241,-6.20206 -4.17597,-7.86237 1.23286,-0.76195 5.62921,3.03538 6.428,5.55216 0.29503,0.92954 1.68349,2.21272 3.08548,2.85151 1.79373,0.81727 2.45474,1.80206 2.23077,3.32343 -0.41137,2.79431 -2.16167,3.3324 -4.20221,1.29186 z m 209.9428,-0.005 c -1.06762,-0.80756 -2.98012,-1.46825 -4.25,-1.46825 -1.6667,0 -2.30887,-0.57455 -2.30887,-2.06574 0,-2.6418 -1.4887,-5.42547 -5.59737,-10.46635 -4.05131,-4.97051 -5.87775,-9.39279 -4.46342,-10.80712 1.47391,-1.47391 4.48751,1.56416 10.25596,10.33921 2.71165,4.125 6.27755,8.63423 7.92423,10.0205 2.0748,1.74669 2.79021,3.05147 2.33029,4.25 -0.79913,2.0825 -1.36114,2.11105 -3.89082,0.1977 z M 287.69256,316.3347 c -2.24893,-1.925 -4.59106,-3.5 -5.20475,-3.5 -1.74924,0 -3.06628,-4.60954 -3.06628,-10.73177 0,-3.08086 -0.29153,-5.31003 -0.64785,-4.95371 -0.35632,0.35632 -0.59787,3.58132 -0.53678,7.16667 0.0611,3.58534 -0.23236,6.51881 -0.65214,6.51881 -3.06044,0 -4.06574,-6.00215 -2.02675,-12.10078 1.52906,-4.57343 2.71092,-5.7556 3.88985,-3.89086 0.79745,1.26135 0.94541,1.26934 0.95836,0.0518 0.0214,-2.00874 7.94139,-14.91936 9.78533,-15.95128 1.87507,-1.04935 5.18874,-0.27007 5.34846,1.2578 0.4175,3.9937 -1.70548,7.22102 -3.67491,5.58654 -3.05224,-2.53313 -9.61881,13.22818 -8.07457,19.38089 0.35309,1.40683 2.59725,3.95372 5.01144,5.68746 5.80395,4.16808 8.01823,8.97848 4.13289,8.97848 -0.63433,0 -2.99337,-1.575 -5.2423,-3.5 z m -13.71433,0.27749 c -2.06997,-2.95529 -1.96737,-4.77749 0.26899,-4.77749 2.28814,0 6.61324,4.48078 5.72006,5.92597 -1.12055,1.8131 -4.34821,1.19415 -5.98905,-1.14848 z m 61.10997,-0.44416 c -1.52369,-1.52369 -0.4829,-4.47595 2.14979,-6.09803 5.64572,-3.47848 20.68536,-14.81746 23.75617,-17.91071 5.28004,-5.31863 7.10731,-18.08552 3.77905,-26.40367 -1.3987,-3.49571 -1.43656,-4.25746 -0.25,-5.03019 0.76908,-0.50085 2.31261,-0.69723 3.43008,-0.4364 1.28436,0.29978 2.46602,-0.22113 3.21226,-1.41604 0.64927,-1.03965 3.22247,-3.29519 5.71823,-5.01232 l 4.53775,-3.12205 v 2.47995 c 0,1.61635 -1.04894,3.22685 -3.01219,4.62481 l -3.01219,2.14487 2.01219,2.55808 c 2.24558,2.85479 2.60939,6.29117 0.85211,8.04845 -0.88011,0.88011 -0.59853,1.6148 1.16676,3.04424 1.49545,1.21095 2.09982,2.47577 1.69146,3.53992 -1.57764,4.11128 -5.20713,0.41479 -6.08415,-6.19644 -0.36367,-2.74151 -1.53562,-6.03379 -2.60434,-7.31618 -2.33775,-2.80517 -2.2647,-3.14423 -2.40613,11.16838 -0.15606,15.79303 -0.8652,17.40522 -10.77747,24.50197 -4.46721,3.19833 -11.26069,8.44379 -15.09662,11.65659 -7.05964,5.91282 -7.86491,6.37262 -9.06276,5.17477 z m -10.6561,-1.8206 c -1.49587,-1.80241 -0.64131,-4.51273 1.42286,-4.51273 1.74935,0 3.93546,3.59411 3.0538,5.02067 -0.88978,1.43969 -3.06512,1.19287 -4.47666,-0.50794 z m -56.62798,-4.05157 c -1.52051,-2.32059 -1.5754,-3.06794 -0.42692,-5.81209 1.29308,-3.08963 1.38787,-4.24196 0.82441,-10.02236 -0.18422,-1.88983 0.32864,-3.25893 1.49839,-4 2.75672,-1.74646 3.86294,0.94186 3.23979,7.87329 -0.29668,3.3 -0.64716,7.76189 -0.77884,9.91531 -0.29275,4.7875 -2.02688,5.6018 -4.35683,2.04585 z m 261.28408,1.87217 c -0.36667,-0.36666 -0.66667,-1.6147 -0.66667,-2.77342 0,-2.39628 -11.49434,-18.2304 -15.54925,-21.41999 -2.52389,-1.98529 -2.86689,-5.13992 -0.55886,-5.13992 1.74495,0 6.97751,5.03944 12.97993,12.50088 5.93924,7.3829 8.80057,13.30452 7.75073,16.04036 -0.58036,1.5124 -2.79262,1.95536 -3.95588,0.79209 z m -199.56171,-4.13721 c -0.58167,-1.08686 -0.60697,-2.3787 -0.0636,-3.25 1.21368,-1.94635 4.33912,-0.0455 4.77824,2.90601 0.407,2.73565 -3.29024,3.00542 -4.71459,0.34399 z m -11.54826,-1.41863 c -2.10862,-3.01049 -1.95768,-4.77749 0.40812,-4.77749 2.03221,0 4.03518,2.69744 4.03518,5.43426 0,2.29855 -2.6474,1.90723 -4.4433,-0.65677 z m 140.10997,1.55584 c -1.11737,-1.11736 -0.74509,-4.02336 0.66537,-5.19394 0.98286,-0.8157 1.80249,-0.76151 3.12662,0.20672 1.48429,1.08534 1.59369,1.68755 0.63277,3.48306 -1.14432,2.13816 -3.11936,2.80957 -4.42476,1.50416 z m -105.66667,-1.67964 c 0,-2.01859 18.88434,-12.16935 20.19723,-10.85646 1.05796,1.05796 -4.57237,5.35998 -11.69723,8.93761 -6.23733,3.13198 -8.5,3.64277 -8.5,1.91885 z m 116.39771,0.1808 c -0.76126,-1.23175 2.03259,-3.8371 9.46876,-8.82991 4.66967,-3.13533 9.13353,-8.44941 9.13353,-10.87317 0,-1.09117 -0.63114,-0.88711 -2.40214,0.77665 -3.04163,2.85746 -6.96759,2.50916 -7.41741,-0.65806 -0.26258,-1.84886 0.15405,-2.25 2.33686,-2.25 2.02796,0 2.92193,-0.70342 3.7787,-2.97327 1.53477,-4.06607 3.34652,-4.4751 6.381,-1.44063 2.19238,2.19239 2.4936,3.20793 2.06894,6.9755 -0.71028,6.30158 -2.79705,8.86474 -12.21518,15.00378 -8.74906,5.70293 -9.95994,6.16726 -11.13306,4.26911 z M 303.11577,304.3031 c -1.54317,-1.35762 -3.45567,-2.4684 -4.25,-2.4684 -0.87386,0 -1.44424,-0.98735 -1.44424,-2.5 0,-3.03079 3.02855,-3.41908 5.84972,-0.75 1.01734,0.9625 2.81734,2.5331 4,3.49021 1.18265,0.95712 2.15028,2.41962 2.15028,3.25 0,2.26979 -3.14325,1.76044 -6.30576,-1.02181 z m 110.93407,-2.44821 c -7.55504,-4.93198 -8.91598,-6.58884 -6.25182,-7.61117 1.48932,-0.57151 15.43154,7.61638 18.22485,10.70296 1.6391,1.81118 1.58545,1.88802 -1.31805,1.88802 -1.94248,0 -5.75924,-1.78383 -10.65498,-4.97981 z m -78.42831,1.77981 c -0.66,-0.66 -1.2,-1.49813 -1.2,-1.8625 0,-0.36438 3.0375,-2.94141 6.75,-5.72673 3.7125,-2.78533 8.95138,-7.10928 11.64195,-9.60879 5.09492,-4.73311 6.60805,-5.01904 6.60805,-1.24871 0,1.63876 -2.20154,3.86746 -8.25,8.35179 -4.5375,3.36411 -9.34094,7.28169 -10.67431,8.70575 -2.74854,2.93547 -3.20061,3.06427 -4.87569,1.38919 z m -11.2,-1.8 c -2.55158,-2.55158 -2.56881,-5 -0.0352,-5 2.03221,0 4.03518,2.69744 4.03518,5.43426 0,2.13887 -1.60064,1.9651 -4,-0.43426 z m 127.2,-0.2 c -0.66,-0.66 -1.2,-1.785 -1.2,-2.5 0,-0.71677 -1.11125,-1.3 -2.47695,-1.3 -1.53859,0 -3.0975,-0.94709 -4.11501,-2.5 -0.99921,-1.52499 -2.58045,-2.5 -4.05443,-2.5 -1.32901,0 -2.68183,-0.69177 -3.00628,-1.53726 -0.32445,-0.84549 -2.08594,-2.16234 -3.91444,-2.92633 -3.63083,-1.51706 -6.7691,-6.74169 -9.93289,-16.53641 -4.06885,-12.59665 -7.83735,-17.50115 -17.34169,-22.56925 -5.90831,-3.15056 -9.34156,-6.78963 -8.49267,-9.0018 0.43355,-1.12983 1.23992,-0.84441 3.71184,1.31383 1.73689,1.51647 6.23915,4.55122 10.00504,6.74389 8.17123,4.75766 11.46475,9.11967 14.95546,19.8074 3.34525,10.24231 5.24936,12.64934 15.1798,19.18904 4.63686,3.05361 8.90809,6.44412 9.49162,7.53446 0.58353,1.09033 1.89003,1.98243 2.90334,1.98243 2.83004,0 4.63657,2.6332 3.08726,4.5 -1.50289,1.81088 -3.18405,1.91595 -4.8,0.3 z m 12.24237,-0.89325 c -0.96513,-1.56161 8.61184,-9.91402 11.04741,-9.63483 3.89663,0.44666 2.70421,3.31612 -2.93356,7.05939 -5.91311,3.92608 -7.05509,4.28856 -8.11385,2.57544 z m -152.75277,-1.06058 c -0.92928,-0.52005 -1.6896,-1.62808 -1.6896,-2.46228 0,-2.11242 5.38049,-1.42456 5.79054,0.74028 0.38471,2.03102 -1.86257,2.97465 -4.10094,1.722 z m -19.4771,-3.03367 c -1.77115,-1.77115 -1.51241,-6.76018 0.38842,-7.4896 2.09444,-0.80371 3.48564,1.44191 3.1596,5.10009 -0.29068,3.26139 -1.71613,4.2214 -3.54802,2.38951 z m 38.45417,0.52083 c -0.36667,-0.36666 -0.64784,-1.60416 -0.62483,-2.75 0.0296,-1.47241 1.96478,-3.2563 6.59937,-6.08333 9.54746,-5.82381 12.86687,-8.92342 14.70189,-13.72833 1.83587,-4.80717 5.6569,-8.15631 5.6569,-4.95828 0,7.48909 -8.07231,18.63204 -16.67819,23.02244 -2.17558,1.1099 -4.5431,2.72588 -5.26115,3.59108 -1.36707,1.64722 -3.26225,2.03817 -4.39399,0.90642 z m -25.41667,-1.99561 c -1.81295,-0.73154 -1.53375,-4.29161 0.39461,-5.03158 2.25594,-0.86569 4.74863,2.51511 3.216,4.36182 -1.16542,1.40424 -1.59356,1.48366 -3.61061,0.66976 z m 12.71483,-0.8801 c -0.92413,-1.1135 -0.97687,-1.84558 -0.18967,-2.63278 1.5761,-1.5761 4.22484,-0.23206 4.22484,2.14378 0,2.40201 -2.22385,2.67151 -4.03517,0.489 z m 141.39936,0.0491 c -0.34636,-0.90262 -0.19525,-2.07563 0.33581,-2.60669 1.39942,-1.39942 4.45283,0.0679 4.08761,1.96434 -0.4239,2.20111 -3.64573,2.66896 -4.42342,0.64235 z M 275.41414,290.3258 c -1.44256,-1.73818 0.75112,-5.39717 8.3881,-13.9911 3.82134,-4.30017 4.54472,-4.74413 5.16822,-3.17192 0.47643,1.20136 -0.002,2.74412 -1.39451,4.5 -1.16572,1.46956 -3.76631,5.25942 -5.77909,8.42192 -2.01278,3.1625 -3.99054,5.75 -4.39502,5.75 -0.40448,0 -1.29895,-0.67901 -1.9877,-1.5089 z m 35.162,-1.09536 c -3.66782,-2.56904 -2.28796,-6.20762 1.8554,-4.89256 1.09566,0.34775 2.44736,1.4829 3.00376,2.52256 1.49112,2.78617 -1.90213,4.44118 -4.85916,2.37 z m 13.09539,0.87362 c -1.42808,-0.49814 -1.7285,-5.26936 -0.33179,-5.26936 2.23625,0 4.08179,1.35642 4.08179,3 0,1.9237 -1.73351,2.97275 -3.75,2.26936 z m 128.28004,-1.81354 c -6.17545,-4.19077 -14.52679,-10.66803 -14.60294,-11.32597 -0.0401,-0.34642 -0.26123,-6.44044 -0.49142,-13.54228 -0.28039,-8.65092 -0.87271,-13.60562 -1.79473,-15.0128 -0.75692,-1.1552 -4.32758,-3.58342 -7.9348,-5.39606 -3.60723,-1.81263 -10.66367,-6.23232 -15.681,-9.82153 l -9.1224,-6.52584 0.66353,-4.42476 c 0.43299,-2.88739 0.24601,-4.92783 -0.53817,-5.87271 -0.94578,-1.13959 -0.88329,-1.90254 0.29344,-3.58257 1.35533,-1.93499 1.31059,-2.31916 -0.47835,-4.1081 -1.51932,-1.51932 -1.81655,-2.70645 -1.29153,-5.15835 0.37508,-1.75167 0.82446,-3.34241 0.99861,-3.53499 0.80276,-0.88763 2.45616,1.19082 2.51311,3.15916 l 0.0634,2.19098 0.89655,-2.22881 c 0.49311,-1.22585 1.4087,-6.17585 2.03464,-11 1.38582,-10.68056 3.9909,-17.27119 6.82677,-17.27119 3.20668,0 3.44854,1.81519 0.68023,5.10514 -1.41809,1.68531 -2.44162,3.3636 -2.27451,3.72953 0.16711,0.36593 0.92397,1.90807 1.6819,3.42697 1.23105,2.46706 1.18297,2.90429 -0.4508,4.09893 -1.43338,1.04811 -2.3073,4.66759 -4.04146,16.73836 -1.21694,8.47059 -1.9914,15.98511 -1.72101,16.69894 0.27039,0.71382 3.19883,3.1363 6.50764,5.38327 6.03286,4.09684 6.29653,3.88893 2.13197,-1.68114 -2.67798,-3.58179 -4.12743,-8.5 -2.50505,-8.5 1.41488,0 9.95354,11.54301 10.68012,14.43796 0.30773,1.22606 1.77283,2.5945 3.34293,3.12235 1.53731,0.51683 5.10995,3.53195 7.9392,6.70028 5.0831,5.69229 5.14409,5.8383 5.14409,12.31574 0,3.60533 0.46078,7.41612 1.02394,8.46841 0.56317,1.05229 3.65676,3.70117 6.87465,5.88639 6.31616,4.28922 7.73414,6.29887 5.65936,8.02078 -1.01476,0.84217 -2.74905,-0.0933 -7.44056,-4.01344 -5.70333,-4.76558 -6.11739,-4.94915 -6.11739,-2.71211 0,2.84882 3.39363,6.2265 11.25,11.19714 3.1625,2.00088 5.75,4.25098 5.75,5.00024 0,2.48571 -2.83363,2.49976 -6.46996,0.0321 z m 12.69247,0.98748 c -1.4575,-1.02087 -2.22251,-2.59013 -2.22251,-4.55902 0,-1.8309 -0.40726,-2.75061 -1.0438,-2.35721 -1.7838,1.10245 -3.9562,-1.62027 -3.9562,-4.95839 0,-3.94047 -1.00855,-5.21994 -8.25,-10.4661 -3.1625,-2.29112 -5.75,-4.37647 -5.75,-4.63412 0,-0.25765 1.63421,-0.46846 3.63158,-0.46846 2.94507,0 4.42781,0.80341 7.84358,4.25 2.31661,2.3375 5.06072,6.49796 6.09802,9.24546 1.86292,4.93426 5.73455,9.41155 8.19152,9.47294 1.47436,0.0368 5.25041,-5.77286 5.17911,-7.9684 -0.0337,-1.03882 -0.53127,-0.80823 -1.61823,0.75 -2.46615,3.53537 -4.48607,2.6619 -9.31743,-4.02915 -6.56646,-9.09402 -11.99468,-14.72085 -14.20125,-14.72085 -2.43795,0 -5.8069,-1.7609 -5.8069,-3.03518 0,-0.53065 1.37235,-0.96482 3.04966,-0.96482 4.38206,0 8.05557,-2.21094 13.22306,-7.95843 2.49304,-2.77286 4.87158,-5.04157 5.28565,-5.04157 0.41407,0 2.2278,1.125 4.03052,2.5 1.80272,1.375 4.03084,2.5 4.95138,2.5 1.07955,0 1.46864,0.5344 1.09605,1.50536 -0.45841,1.19458 0.23386,1.09136 3.35317,-0.5 2.16196,-1.10295 5.16376,-2.00536 6.67067,-2.00536 2.13181,0 2.47339,-0.26645 1.53919,-1.20065 -0.93421,-0.93421 -1.93751,-0.93421 -4.521,0 -4.35204,1.57372 -4.67835,1.53035 -4.67835,-0.62172 0,-1.0277 1.77198,-2.98252 4.06361,-4.48289 l 4.0636,-2.66052 2.51588,2.71468 c 1.76865,1.90841 2.39601,3.53132 2.11231,5.46433 -0.29886,2.03621 0.32919,3.45169 2.42052,5.45531 2.29163,2.19553 2.82408,2.38093 2.82408,0.98337 0,-0.94725 -0.72675,-2.83144 -1.61501,-4.18709 -1.53441,-2.34181 -1.51329,-2.46482 0.42327,-2.46482 1.12106,0 3.43575,1.17589 5.14376,2.61308 l 3.10548,2.61309 -2.57476,4.39349 c -1.95715,3.33962 -2.33114,4.81169 -1.55916,6.13692 0.92232,1.58329 1.0184,1.55278 1.04601,-0.33227 0.0396,-2.70646 4.46107,-6.85676 6.47953,-6.08221 0.85298,0.32732 1.55088,1.19598 1.55088,1.93035 0,1.64834 -6.36888,7.95582 -7.32408,7.25347 -0.38092,-0.28009 -0.28414,-0.0183 0.21508,0.58175 1.30629,1.57013 4.89945,0.14178 6.75065,-2.68351 0.8736,-1.33329 2.19485,-2.42416 2.9361,-2.42416 0.74125,0 3.14482,2.64634 5.34127,5.88075 2.19644,3.23441 5.88488,7.4518 8.19651,9.37197 l 4.20298,3.49123 -2.22735,3.12802 c -1.22504,1.72042 -3.11832,3.12803 -4.20729,3.12803 -3.13694,0 -12.77352,-6.69864 -14.95464,-10.39538 -1.30771,-2.2164 -2.99848,-3.56847 -4.9506,-3.95889 -2.17417,-0.43484 -3.77036,-1.90242 -5.98656,-5.50419 -5.5406,-9.00462 -11.19346,-9.10203 -19.01394,-0.32764 -2.73846,3.07248 -6.16039,6.06921 -7.60431,6.65941 -2.21529,0.9055 -2.39948,1.2605 -1.17939,2.27309 1.18963,0.9873 2.56426,-0.0491 7.7555,-5.84729 6.34293,-7.08452 10.12311,-9.55442 12.48039,-8.15447 2.71031,1.6096 21.56968,22.25025 21.56968,23.60695 0,0.78894 -0.7875,1.73788 -1.75,2.10875 -1.84933,0.71259 -2.96208,-0.38313 -13.92351,-13.71034 -3.05347,-3.7125 -6.31281,-6.75 -7.24296,-6.75 -2.17562,0 -8.08353,6.07056 -8.08353,8.30608 0,1.45333 0.2973,1.5252 1.97504,0.47743 1.46226,-0.91319 2.26694,-0.94153 3.09934,-0.10913 1.75856,1.75856 0.12369,5.32562 -2.44088,5.32562 -1.64938,0 -2.56716,0.92764 -3.51724,3.55503 -0.76188,2.10694 -2.9415,4.75463 -5.35093,6.5 -4.73614,3.43085 -4.64942,3.41489 -7.54282,1.38827 z m 52.87319,-15.1933 c -2.20839,-2.6125 -4.89993,-5.875 -5.98119,-7.25 -1.79556,-2.28335 -2.02708,-2.34282 -2.67168,-0.68623 -1.11415,2.86336 0.97945,6.11509 6.13641,9.53092 6.57842,4.35736 7.20968,3.95733 2.51646,-1.59469 z m -55.3457,-11.38053 c -5.77241,-4.71562 -4.789,-7.77772 1.3359,-4.15966 2.13204,1.25943 3.18875,1.41554 4.01165,0.59264 0.82289,-0.82289 0.56206,-1.41425 -0.99019,-2.24499 -2.55149,-1.36552 -2.78717,-4.05151 -0.35736,-4.07277 0.9625,-0.008 2.425,-0.45842 3.25,-1 1.33333,-0.87528 1.33333,-1.0941 0,-1.96938 -2.8876,-1.89559 -5.61799,-0.98026 -9.80649,3.28752 l -4.22291,4.30283 3.59262,4.19717 c 1.97595,2.30844 4.34506,4.18208 5.2647,4.16364 1.13026,-0.0227 0.45693,-1.02621 -2.07792,-3.097 z m 23.21895,-9.70104 c 3.70388,0.35322 3.83617,0.27371 2.32425,-1.39695 -0.88175,-0.97431 -2.38476,-1.77148 -3.34003,-1.77148 -2.04952,0 -11.00085,7.81565 -14.13013,12.3374 -1.37724,1.99009 0.29663,0.80725 4.51491,-3.19045 6.23513,-5.9091 6.97804,-6.32689 10.631,-5.97852 z m -187.96895,34.86675 c 0,-2.83938 3.41312,-4.44726 5.10725,-2.40595 1.1114,1.33916 1.01981,1.80469 -0.58613,2.97898 -2.68245,1.96146 -4.52112,1.72842 -4.52112,-0.57303 z m 81.08467,-1.61739 c -3.14129,-2.64322 -4.09508,-5.44333 -1.83467,-5.38619 1.57289,0.0398 6.75,4.53535 6.75,5.86142 0,2.17843 -1.99032,1.986 -4.91533,-0.47523 z m -121.08467,-1.46745 c 0,-2.79513 3.35434,-6.94829 6.95174,-8.60725 2.23702,-1.03162 4.00802,-2.55967 4.02246,-3.47065 0.038,-2.39858 2.83644,-4.4618 4.20096,-3.09728 1.4909,1.4909 0.24981,4.30095 -2.18021,4.93641 -1.09722,0.28693 -1.99495,1.07377 -1.99495,1.74852 0,1.14602 -9.17654,9.53991 -10.42941,9.53991 -0.31382,0 -0.57059,-0.47235 -0.57059,-1.04966 z m 72.1532,-0.19714 c -2.11259,-2.11259 -1.36438,-4.7532 1.3468,-4.7532 1.375,0 2.5,-0.45 2.5,-1 0,-1.63096 7.98842,-9.12519 9.03647,-8.47746 2.09498,1.29477 0.74338,4.49718 -3.78647,8.97145 -5.84278,5.77109 -7.58036,6.77565 -9.0968,5.25921 z m -59.76057,-1.17241 c -0.76915,-2.00437 1.86515,-5.64187 7.56896,-10.45139 5.80179,-4.89214 6.67666,-6.99448 4.58994,-11.02976 -2.99022,-5.78243 -1.21918,-18.09964 2.60246,-18.09964 1.51213,0 1.88983,0.44342 1.42018,1.66732 -0.3519,0.91702 -0.90989,4.25131 -1.23999,7.40953 -0.48868,4.67546 -0.19727,6.57451 1.56862,10.22237 l 2.16881,4.48015 -8.32447,8.61032 c -4.57846,4.73567 -8.6587,8.61031 -9.06719,8.61031 -0.4085,0 -0.98779,-0.63865 -1.28732,-1.41921 z m 34.29487,0.77338 c -1.08364,-1.08364 -0.80169,-5.16557 0.40846,-5.91348 0.60278,-0.37254 1.83265,0.0593 2.73305,0.95975 1.23118,1.23118 1.37563,2.05158 0.5826,3.3088 -1.22934,1.94891 -2.74893,2.62011 -3.72411,1.64493 z m 12.27085,-1.90436 c -1.06459,-1.28274 -0.9889,-1.84344 0.43867,-3.25 1.62431,-1.60039 1.80838,-1.58763 3.14715,0.21815 1.05374,1.42131 1.13568,2.26287 0.31644,3.25 -1.4361,1.73039 -2.32642,1.68062 -3.90226,-0.21815 z m -62.58921,-3.93023 c -0.33506,-0.87316 1.1077,-3.43687 3.51728,-6.25 2.24695,-2.62327 6.00422,-7.2012 8.34948,-10.17317 5.05974,-6.41185 7.24209,-8.01842 8.78976,-6.47075 0.77428,0.77428 -1.5289,4.38312 -8.12276,12.72752 -8.92542,11.29495 -11.34697,13.25912 -12.53376,10.1664 z m 146.08541,-0.97413 c -2.22601,-2.22601 -3.33874,-5.54545 -1.85892,-5.54545 1.75259,0 6.40437,4.40753 6.40437,6.06809 0,2.613 -1.59298,2.42984 -4.54545,-0.52264 z m -102.80859,-1.3931 c -1.45528,-1.51898 -2.64596,-3.52466 -2.64596,-4.45707 0,-2.09605 2.57483,-2.24563 3.36163,-0.19528 0.8894,2.31775 3.25243,1.80834 9.16935,-1.97667 6.68189,-4.27435 10.46902,-5.41654 10.46902,-3.15742 0,0.8705 -1.4625,2.33094 -3.25,3.24542 -1.7875,0.91449 -4.825,2.88593 -6.75,4.38099 -6.51809,5.06231 -7.39768,5.2458 -10.35404,2.16003 z m 12.71078,1.33492 c -0.80951,-2.10954 0.93244,-3.89519 7.31228,-7.49575 5.18687,-2.92729 9.99093,-3.68033 9.70034,-1.52055 -0.0718,0.53403 -2.54685,2.26502 -5.5,3.84663 -2.95315,1.58162 -6.29836,3.73218 -7.43381,4.77903 -2.49351,2.29895 -3.31628,2.37775 -4.07881,0.39064 z m 12.82371,-0.73727 c 0.20974,-1.47682 1.00682,-2.25 2.31955,-2.25 1.31273,0 2.10981,0.77318 2.31955,2.25 0.26213,1.84568 -0.15469,2.25 -2.31955,2.25 -2.16486,0 -2.58168,-0.40432 -2.31955,-2.25 z m 5.91828,-3.66782 c -1.05794,-0.66982 -0.3546,-1.42116 2.87062,-3.06654 3.3722,-1.72037 4.70948,-3.21513 6.34973,-7.0975 2.24622,-5.31664 2.78104,-5.70735 4.68017,-3.41904 1.7938,2.16139 -0.28376,6.62177 -5.11898,10.9901 -3.92064,3.54207 -6.21329,4.21903 -8.78154,2.59298 z m 30.46969,-3.28796 c -2.01149,-2.87181 -2.0253,-10.69691 -0.0239,-13.55429 1.94597,-2.77827 8.32239,-7.18636 16.1466,-11.16234 6.91392,-3.5134 7.3089,-3.60244 7.3089,-1.64764 0,0.78648 -3.4875,3.34889 -7.75,5.69425 -4.2625,2.34535 -9.04324,5.54799 -10.62386,7.11698 -2.71547,2.69547 -2.83726,3.17615 -2.20983,8.72191 0.73497,6.49624 -0.3694,8.36968 -2.84789,4.83113 z m -106.90175,0.53911 c -2.40908,-2.40908 2.27171,-6.45929 4.92248,-4.25934 1.27411,1.05741 1.24606,1.45061 -0.21891,3.06939 -1.72683,1.90812 -3.52938,2.36415 -4.70357,1.18995 z m 93.82928,-2.49527 c 1.41972,-6.83326 5.30619,-16.7121 7.92608,-20.14694 1.71146,-2.24385 5.71214,-5.08312 10.89153,-7.72971 4.50254,-2.30072 9.42087,-5.0617 10.92962,-6.1355 2.92281,-2.08023 5.03629,-1.71777 4.10685,0.70432 -0.30945,0.80639 -5.69917,4.65329 -11.97717,8.54866 -9.09552,5.64358 -11.81663,7.87064 -13.3937,10.96196 -1.08854,2.13371 -1.97916,4.81185 -1.97916,5.95143 0,3.41105 -2.68136,8.76682 -5.01414,10.01529 -2.08899,1.11799 -2.15345,1.02413 -1.48991,-2.16951 z m 55.66656,2.28354 c -1.85078,-1.17313 -1.04952,-5.52741 1.09225,-5.93563 2.15452,-0.41065 4.00806,3.70205 2.50763,5.56403 -1.17757,1.46133 -1.7822,1.52374 -3.59988,0.3716 z m 27.81978,-3.3716 c -2.23977,-8.69479 -3.17607,-10.68856 -7.12777,-15.17794 -2.22531,-2.52808 -7.16996,-6.45241 -10.98811,-8.72073 -6.83039,-4.05786 -8.86641,-6.19014 -8.86641,-9.28559 0,-2.05186 2.39031,-2.0053 4.12118,0.0803 0.75134,0.9053 4.74394,3.87796 8.87245,6.60591 10.95076,7.2358 13.53933,10.72637 17.45629,23.53902 1.67262,5.47127 1.4387,7.20905 -0.97039,7.20905 -0.81153,0 -1.86373,-1.79071 -2.49724,-4.25 z m 93.02828,2.76273 c -1.44163,-1.73705 -0.66783,-4.51273 1.25805,-4.51273 1.88304,0 3.73138,2.08047 3.73138,4.2 0,2.20959 -3.24631,2.41307 -4.98943,0.31273 z m -224.63057,-0.96484 c -1.26179,-3.28817 2.33421,-4.8021 4.68325,-1.97167 1.08413,1.30629 1.06229,1.73178 -0.12755,2.48468 -2.11414,1.33777 -3.92368,1.134 -4.5557,-0.51301 z m -25.83017,-0.46727 c -0.57853,-0.93607 1.98796,-4.08062 3.33047,-4.08062 1.68624,0 4.3718,2.78307 3.71346,3.8483 -0.84665,1.36991 -6.23111,1.5475 -7.04393,0.23232 z m 31.06887,-3.08062 c -2.97597,-4.497 -3.17161,-4.58995 -5.26156,-2.5 -3.36881,3.36882 -11.35714,0.17623 -11.35714,-4.53896 0,-2.33711 1.27977,-2.53379 3,-0.46104 1.38133,1.6644 8,2.07806 8,0.5 0,-2.12652 3.24539,-0.84348 6.30098,2.49105 l 3.19902,3.49105 4.91948,-2.49105 c 5.26753,-2.66729 13.06188,-3.45134 12.33755,-1.24105 -0.2253,0.6875 -3.46741,2.24218 -7.20469,3.45484 -3.73728,1.21267 -7.56338,2.90017 -8.50244,3.75 -2.33878,2.11657 -2.43467,2.07323 -5.4312,-2.45484 z m 23.3813,0.10699 c 0,-0.49116 0.61016,-1.12715 1.3559,-1.41332 0.74575,-0.28617 5.1717,-5.62181 9.83545,-11.85699 4.66375,-6.23517 9.1161,-11.84241 9.8941,-12.46054 0.778,-0.61812 3.44646,-1.41735 5.9299,-1.77608 4.93521,-0.71288 7.69277,-2.25911 13.62105,-7.63767 l 3.89918,-3.53761 -0.119,-12.71343 c -0.0939,-10.0319 0.18882,-12.96889 1.34042,-13.92464 3.53578,-2.93444 5.78464,8.49248 3.15559,16.03419 -0.79703,2.28635 -0.77671,4.06079 0.0761,6.64477 1.02816,3.11536 0.91468,3.84174 -0.97561,6.24486 -3.61669,4.59787 -11.59963,9.95664 -19.10447,12.8244 -5.52393,2.11081 -7.52721,3.42712 -8.78244,5.77075 -0.89438,1.66991 -3.94575,5.6087 -6.78082,8.75288 -2.83507,3.14417 -5.6634,6.66725 -6.28519,7.82906 -0.76032,1.42065 -2.10141,2.11238 -4.09534,2.11238 -1.63065,0 -2.96482,-0.40186 -2.96482,-0.89301 z m -68.06892,-1.69003 c -3.71754,-4.47937 10.47131,-32.01147 15.50238,-30.08087 2.31763,0.88936 1.90654,3.26771 -1.0365,5.99665 -2.17911,2.02058 -2.4234,2.74934 -1.5,4.47473 1.56569,2.92552 1.36584,6.87771 -0.38171,7.5483 -1.62003,0.62167 -3.50909,-2.07929 -3.52502,-5.04003 -0.005,-0.99866 -1.13037,0.59144 -2.5,3.53356 -1.43643,3.08561 -2.49023,7.16628 -2.49023,9.64301 0,4.63907 -1.93058,6.50119 -4.06892,3.92465 z m 258.74838,0.92916 c -0.35964,-0.35963 -0.36806,-2.49713 -0.0187,-4.75 0.61718,-3.98021 0.5808,-4.04803 -1.28563,-2.39671 -1.28233,1.13454 -2.40203,1.40199 -3.36859,0.80462 -1.2044,-0.74436 -1.24259,-1.46228 -0.22716,-4.27041 1.48073,-4.09492 1.56719,-6.73362 0.22062,-6.73362 -0.55,0 -1,0.41786 -1,0.92857 0,1.69994 -3.03686,3.99452 -4.52894,3.42195 -2.1142,-0.81129 -1.81144,-4.73251 0.52894,-6.85052 1.1,-0.99549 2,-2.41523 2,-3.15499 0,-2.14398 -2.44657,-1.56301 -5.03907,1.19658 -2.26034,2.40602 -6.88116,3.14796 -6.116,0.98202 0.18971,-0.53702 -1.23034,-1.66202 -3.15567,-2.5 -3.66448,-1.59494 -11.68926,-10.85882 -11.68926,-13.49419 0,-2.40242 2.12152,-1.80398 5.61771,1.58467 l 3.21293,3.11409 1.58468,-3.06443 c 2.15199,-4.16149 2.03372,-4.50356 -1.32487,-3.83184 -2.09117,0.41823 -3.07653,0.14674 -3.50324,-0.96524 -0.78367,-2.04221 -0.0559,-3.07295 3.44975,-4.88579 2.89696,-1.49807 2.91933,-1.48689 4.93659,2.46728 2.54968,4.99777 2.55597,7.5632 0.0265,10.77897 -2.19871,2.7952 -2.54173,4.27287 -0.9919,4.27287 0.55445,0 1.72831,-1.8 2.60858,-4 1.89,-4.72358 3.05026,-4.94608 6.51823,-1.25 1.41915,1.5125 3.71624,3.51844 5.10463,4.45764 2.92121,1.97609 11.76046,18.8767 11.76046,22.48594 0,4.55449 -3.1122,7.86089 -5.32054,5.65254 z m -211.29946,-5.79823 c -0.9229,-2.40506 0.53059,-3.54789 4.51235,-3.54789 5.19717,0 5.67549,0.94776 1.58483,3.14023 -4.1789,2.23975 -5.36374,2.31897 -6.09718,0.40766 z m 20.25065,-1.40353 c -0.92364,-1.0206 -3.24338,-2.69793 -5.15499,-3.7274 -3.40232,-1.83227 -4.39619,-3.73001 -2.55075,-4.87055 1.02125,-0.63117 13.07509,6.10004 13.07509,7.30149 0,0.91988 -2.15639,3.1521 -3.04501,3.1521 -0.35476,0 -1.40071,-0.83504 -2.32434,-1.85564 z m -26.102,-3.49975 c -1.84933,-1.35226 -1.58809,-4.64461 0.36854,-4.64461 1.45219,0 4.10281,2.95337 4.10281,4.57143 0,1.80209 -2.0608,1.83582 -4.47135,0.0732 z m -12.52865,-0.56282 c 0,-2.43171 1.43428,-4.08179 3.54797,-4.08179 2.90394,0 4.01006,1.62269 2.41568,3.5438 -1.32299,1.5941 -5.96365,2.01274 -5.96365,0.53799 z M 436.743,238.32394 c -12.49813,-13.29421 -14.32147,-16.18728 -14.32147,-22.72364 0,-4.41664 -0.18306,-4.7656 -2.5,-4.7656 -2.09996,0 -2.5,0.4706 -2.5,2.94098 0,3.45137 -1.49292,4.72475 -3.5438,3.02267 -4.05068,-3.36176 0.6104,-19.39537 6.52794,-22.45545 4.57113,-2.36382 8.07207,-7.18125 7.1109,-9.78489 -0.45141,-1.22282 -1.61501,-2.37989 -2.58577,-2.57126 -1.74255,-0.34352 -1.84878,1.43713 -0.40854,6.84795 0.55111,2.07045 -4.39602,2.55405 -6.02676,0.58913 -1.00997,-1.21694 -0.96864,-2.76665 0.21182,-7.94181 0.80666,-3.53641 1.16317,-6.92089 0.79224,-7.52106 -0.37092,-0.60017 -2.45272,-1.70637 -4.62622,-2.45823 -4.10754,-1.42089 -5.66341,-3.98912 -3.02908,-5.00001 3.30739,-1.26916 12.57727,3.80447 12.57727,6.88385 0,0.66178 0.675,1.76344 1.5,2.44813 2.29058,1.90101 1.91567,-0.70799 -0.78762,-5.48102 -2.81366,-4.96791 -5.7444,-6.48545 -12.56125,-6.50424 -2.94188,-0.008 -6.90686,-0.75405 -8.81107,-1.65766 -7.00574,-3.32444 -10.51876,-12.80154 -6.74337,-18.19167 2.48138,-3.54265 6.17514,-2.51758 10.21423,2.83459 4.7454,6.28809 10.0905,12 11.22939,12 1.78609,0 0.97322,-2.63866 -1.54031,-5 -1.375,-1.29175 -2.5,-3.17019 -2.5,-4.17431 0,-3.27517 3.39205,-1.95139 7.26579,2.83555 3.08453,3.81168 3.66612,5.213 3.21484,7.74614 -0.45309,2.54332 0.2097,4.11531 3.7316,8.85046 2.3554,3.16681 4.43876,5.28918 4.6297,4.71637 0.19093,-0.5728 -0.17366,-1.669 -0.81022,-2.436 -0.8883,-1.07034 -0.78807,-2.10868 0.43114,-4.46638 1.93181,-3.7357 2.54065,-3.78121 6.46042,-0.48294 3.55406,2.99055 3.92527,4.95595 1.07673,5.70086 -1.23566,0.32313 -2,1.36401 -2,2.72362 0,1.70937 0.39065,2.03641 1.75,1.46502 5.97861,-2.51301 9.91344,-0.19739 15.48053,9.11015 1.7832,2.98131 3.69832,5.27103 4.25582,5.08827 0.55751,-0.18276 1.97813,-2.04226 3.15695,-4.13221 l 2.1433,-3.79992 1.59215,2.42993 c 0.87569,1.33647 1.89002,3.91923 2.25407,5.73949 0.65014,3.25072 0.6088,3.29788 -2.32611,2.65326 -2.10086,-0.46142 -3.3686,-0.19771 -4.26981,0.88818 -0.70499,0.84945 -2.10013,1.54446 -3.10033,1.54446 -1.00019,0 -2.13932,0.51905 -2.5314,1.15344 -0.52689,0.85253 1.45302,1.00498 7.58948,0.58438 9.51105,-0.6519 13.29522,-2.64901 13.84289,-7.30561 l 0.33755,-2.87 -2.01656,2.46889 c -1.59016,1.94685 -2.27853,2.21137 -3.25545,1.251 -1.87382,-1.84209 0.54556,-9.2821 3.0184,-9.2821 2.60517,0 7.35778,5.1911 10.08657,11.01718 2.29242,4.89441 2.2978,4.98738 0.40981,7.07359 -2.01305,2.22439 -6.58958,4.90923 -8.3682,4.90923 -1.97978,0 -1.04813,-2.62729 1.95034,-5.5 1.65,-1.5808 3,-3.23999 3,-3.68709 0,-1.65818 -2.72499,-0.73455 -5.01056,1.69833 -3.24675,3.456 -8.85141,4.7344 -19.47036,4.44109 -12.77221,-0.35279 -14.17563,0.0582 -5.29824,1.55146 4.71557,0.79321 9.11371,0.9846 11.29925,0.49168 4.94863,-1.1161 9.8882,0.47516 14.55069,4.68744 6.24327,5.64042 4.14277,9.1989 -2.25315,3.81709 -1.79393,-1.5095 -4.22834,-2.50344 -6.14436,-2.50869 -1.7453,-0.005 -5.64827,-0.2389 -8.67327,-0.52026 l -5.5,-0.51156 5.24933,1.49959 c 2.88713,0.82477 7.03767,2.41193 9.22344,3.52703 4.68246,2.38881 11.02723,8.4574 11.02723,10.54722 0,2.71977 -2.94853,1.49411 -8.5,-3.53333 -3.03665,-2.75 -6.26985,-5 -7.1849,-5 -1.45505,0 -1.41417,0.28221 0.32597,2.25 1.09433,1.2375 2.7683,3.503 3.71993,5.03443 0.95163,1.53144 3.9597,4.38616 6.68462,6.34381 5.10139,3.66498 6.12414,5.7089 3.383,6.76078 -1.77205,0.68 -12.05547,-7.63798 -12.95791,-10.48129 -0.30149,-0.94992 -1.22568,-2.28941 -2.05376,-2.97665 -1.23906,-1.02833 -1.76547,-0.87852 -2.97357,0.8463 -1.44986,2.06995 -1.56969,2.02643 -9.70568,-3.52474 -4.53074,-3.09132 -9.51044,-6.66339 -11.06601,-7.93794 -2.48016,-2.03211 -2.6133,-2.39988 -1.08158,-2.98765 1.00445,-0.38544 3.05625,0.1086 4.82831,1.16259 8.72143,5.18737 13.25176,7.47589 14.83158,7.49224 3.01802,0.0312 1.90495,-1.73002 -1.5,-2.3735 -1.7875,-0.33781 -4.78798,-1.55218 -6.66774,-2.6986 -2.67212,-1.62967 -3.10845,-2.28018 -2,-2.98178 0.77976,-0.49356 2.54274,-0.96762 3.91774,-1.05349 2.3119,-0.14436 0.0986,-0.58531 -12.11302,-2.41323 -4.06695,-0.60877 -4.79856,-0.42561 -6.18039,1.54724 -1.47546,2.10651 -1.41019,2.36923 1.11302,4.47994 3.61506,3.02406 20.17356,13.83873 26.26449,17.15383 4.79759,2.61118 6.1836,4.74143 3.6659,5.63438 -2.54723,0.90341 -22.30363,-11.01179 -31.46847,-18.97884 -3.11594,-2.7087 -3.19558,-2.97305 -2.5,-8.29783 l 0.71847,-5.5 4.23583,-0.30681 4.23584,-0.3068 -1.6213,-2.4744 c -0.89171,-1.36093 -1.401,-2.6947 -1.13176,-2.96394 0.26925,-0.26924 2.84861,0.0164 5.73191,0.63476 3.82286,0.81986 5.5412,0.82547 6.34593,0.0207 0.80473,-0.80473 0.53589,-1.10355 -0.99286,-1.10355 -1.15302,0 -3.47927,-1.575 -5.16945,-3.5 -3.3954,-3.86711 -6.13414,-4.5614 -6.13414,-1.55502 0,1.06972 -1.9995,3.81903 -4.44333,6.10957 -5.26197,4.93192 -7.55667,10.77073 -7.55667,19.2278 v 5.92603 l 10.25,10.64583 c 7.39823,7.68393 10.92594,10.65654 12.6795,10.68434 1.33623,0.0212 2.60186,0.55556 2.8125,1.1875 0.41466,1.24398 -3.15422,5.27399 -4.67053,5.27399 -0.51068,0 -5.79818,-5.17984 -11.75,-11.51076 z m -14.07967,-34.55012 c -0.20754,-2.0584 0.4315,-2.88977 3.25684,-4.23708 3.97433,-1.89523 7.51133,-6.9704 7.45848,-10.70204 -0.0334,-2.35826 -0.11353,-2.32041 -1.41337,0.66766 -0.83698,1.92406 -3.6426,4.6722 -7.14639,7 -3.77777,2.50982 -6.01381,4.75952 -6.47949,6.51908 -0.8369,3.16218 -0.24359,4.00404 2.54098,3.60544 1.53182,-0.21927 1.97672,-0.93119 1.78295,-2.85306 z m 31.18648,-13.16507 c -0.80608,-2.53974 -7.43342,-10.77405 -8.67143,-10.77405 -3.59943,0 0.15972,8.23761 5.18251,11.35667 3.4982,2.17232 4.31976,2.03512 3.48892,-0.58262 z m -44.42828,-32.70262 c 0,-1.20265 -2.86878,-4.07143 -4.07143,-4.07143 -1.32009,0 -1.15021,2.37836 0.27143,3.8 1.42164,1.42164 3.8,1.59152 3.8,0.27143 z m -7,-8.07143 c 0,-1.03508 -0.45318,-2.16205 -1.00706,-2.50437 -1.2852,-0.79429 -2.39487,2.01458 -1.60699,4.06775 0.76892,2.00377 2.61405,0.90026 2.61405,-1.56338 z m -75,97.03518 c 0,-3.5138 6.48913,-5.53005 7.69386,-2.39057 0.77042,2.00767 -2.13229,4.35539 -5.38499,4.35539 -1.62842,0 -2.30887,-0.57905 -2.30887,-1.96482 z m -29.61405,-0.4718 c -0.8995,-2.34405 0.30451,-4.56338 2.47568,-4.56338 2.30275,0 3.50523,2.47947 1.82893,3.77119 -2.74104,2.11217 -3.72836,2.29387 -4.30461,0.79219 z m 12.94592,-0.14092 c -0.33295,-0.86765 0.13118,-2.31408 1.03139,-3.21429 1.51565,-1.51566 1.75783,-1.51566 3.27348,0 2.04449,2.04448 1.10608,4.79183 -1.63674,4.79183 -1.13452,0 -2.33518,-0.70989 -2.66813,-1.57754 z m -22.33187,-0.31245 c 0,-1.93322 8.98668,-12.94398 14.19885,-17.39688 5.10704,-4.36308 8.80115,-5.96552 8.80115,-3.81778 0,1.16911 -20.93554,22.10465 -22.10465,22.10465 -0.49244,0 -0.89535,-0.4005 -0.89535,-0.88999 z m -12.44064,-1.01396 c -0.81275,-1.31505 0.44521,-14.07972 1.61089,-16.34605 0.49507,-0.9625 1.24389,-1.75 1.66405,-1.75 1.14825,0 3.38864,6.83025 2.63851,8.04399 -0.35883,0.58061 -1.17451,3.13608 -1.81262,5.67884 -1.13781,4.53401 -2.86385,6.37469 -4.10083,4.37322 z m 60.10731,-2.76272 c -0.36667,-0.36666 -0.66667,-1.71666 -0.66667,-3 0,-1.7944 0.55271,-2.33333 2.39301,-2.33333 2.96089,0 4.04104,2.4231 1.99307,4.47106 -1.66151,1.66151 -2.68329,1.89839 -3.71941,0.86227 z m -15.95409,-0.95409 c -0.39192,-0.39191 -0.71258,-1.56608 -0.71258,-2.60927 0,-1.53746 0.61553,-1.83734 3.25,-1.58333 2.47888,0.23901 3.25,0.7879 3.25,2.31336 0,1.39679 -0.7653,2.08925 -2.53742,2.29591 -1.39559,0.16275 -2.85809,-0.0247 -3.25,-0.41667 z m 131.81402,-2.90539 c -10.95646,-6.59763 -21.5266,-15.73947 -21.5266,-18.61778 0,-3.66981 2.31671,-2.80051 8.8221,3.31033 3.7084,3.48348 9.9905,8.49965 13.96022,11.14703 3.96973,2.64739 7.21768,5.18675 7.21768,5.64302 0,2.18695 -3.3541,1.60009 -8.4734,-1.4826 z m 18.6734,2.32615 c -1.8346,-1.8346 -1.46392,-4.8 0.6,-4.8 2.30387,0 4.2,1.89613 4.2,4.2 0,2.06392 -2.9654,2.4346 -4.8,0.6 z m -165.2,-2.24098 c 0,-3.08758 1.75945,-4.22814 3.63271,-2.35489 1.82753,1.82754 0.75077,4.79587 -1.7397,4.79587 -1.34034,0 -1.89301,-0.71265 -1.89301,-2.44098 z m -19,-2.49995 c 0,-1.06048 4.56826,-6.56706 10.35222,-12.47856 9.56865,-9.77967 10.64724,-10.58537 14.25,-10.64471 2.14378,-0.0353 6.59778,-0.65201 9.89778,-1.37042 3.42917,-0.74654 6.40705,-0.93327 6.95,-0.4358 1.60561,1.47111 -0.4961,2.48274 -9.95,4.7893 -10.58291,2.58201 -14.27914,4.89489 -21.58585,13.50714 -6.12213,7.21601 -9.91415,9.75305 -9.91415,6.63305 z m 35,-6.77229 c -9.98105,-8.75538 -10.86524,-10.68535 -5.04536,-11.01282 3.89144,-0.21895 10.09465,-2.92747 16.79536,-7.33339 2.92424,-1.92278 3.25,-1.96356 3.25,-0.40685 0,2.55451 -6.28309,8.02707 -11.50603,10.02173 -4.63064,1.76846 -5.46959,3.70207 -1.84016,4.24123 1.24261,0.18459 5.55461,-2.4228 11.41319,-6.90136 5.17882,-3.95893 10.09485,-7.24243 10.92452,-7.29668 3.72409,-0.24351 0.77119,3.45248 -7.99152,10.00257 -5.225,3.90567 -9.5,7.71383 -9.5,8.46258 0,0.74874 1.48189,1.78636 3.29309,2.3058 3.64701,1.04595 4.00974,3.42633 0.70691,4.63905 -1.58119,0.58057 -3.77992,-0.82701 -10.5,-6.72186 z m 20.31655,6.09576 c -0.41309,-1.0765 0.64542,-2.81196 3.16485,-5.1889 8.30205,-7.83251 9.69154,-17.15574 3.98704,-26.75247 -1.94236,-3.26764 -4.65933,-6.87161 -6.03771,-8.0088 -1.37838,-1.1372 -2.88081,-3.3872 -3.33872,-5 l -0.83257,-2.93237 -5.87972,6.25319 c -5.90139,6.27623 -9.65445,8.24681 -15.70645,8.24681 -4.35851,0 -2.75727,-2.23192 3.13356,-4.36777 3.80411,-1.37926 6.34095,-3.26009 9.69941,-7.19121 2.50138,-2.9279 5.46831,-5.61555 6.59318,-5.97258 1.24739,-0.3959 1.82196,-1.19903 1.4729,-2.05878 -0.31478,-0.77531 -0.82986,-2.04401 -1.14464,-2.81932 -0.35035,-0.86291 0.23144,-1.66476 1.5,-2.06739 2.98713,-0.94807 2.87893,-5.52295 -0.13063,-5.52295 -1.98677,0 -1.81966,-0.39252 1.70295,-4 2.14824,-2.2 4.32867,-4 4.8454,-4 0.54814,0 0.69606,2.60358 0.35509,6.25 -0.40384,4.3189 -0.29764,5.53944 0.34372,3.95028 0.51047,-1.26485 2.22027,-4.18985 3.79955,-6.5 1.57928,-2.31016 3.7695,-6.22528 4.86717,-8.70028 1.93352,-4.3597 12.04933,-15 14.26059,-15 1.5943,0 2.61667,3.30394 1.17144,3.78568 -2.92638,0.97546 -7.4857,5.93273 -11.40831,12.40405 -2.32906,3.84236 -5.23975,8.63404 -6.4682,10.64819 -1.22845,2.01414 -2.24095,4.28878 -2.25,5.05475 -0.009,0.76596 2.66696,-2.68734 5.94668,-7.67401 3.27973,-4.98666 8.56723,-11.91552 11.75,-15.39745 3.18278,-3.48194 6.2851,-7.22864 6.89405,-8.326 1.59016,-2.86556 4.20565,-3.01967 6.98203,-0.4114 4.73425,4.4476 2.09929,13.47345 -5.26143,18.02263 -3.19166,1.97255 -3.93955,2.07412 -7.03382,0.95522 -3.13779,-1.13464 -3.68137,-1.04633 -5.79778,0.94193 -1.28445,1.20668 -2.90012,3.61201 -3.59037,5.34519 -0.69025,1.73317 -2.16001,4.46306 -3.26613,6.06642 l -2.01113,2.9152 2.14896,-0.56197 c 2.49714,-0.65301 4.72206,1.48734 3.86575,3.71884 -0.38636,1.00683 -1.9392,1.51273 -4.64326,1.51273 -6.12472,0 -6.15521,2.1305 -0.11694,8.16878 5.02826,5.02825 6.26883,8.00128 3.93946,9.44091 -1.1399,0.70449 -2.13772,-0.27542 -10.44181,-10.25438 -2.03228,-2.44217 -3.80077,-5.93372 -4.30531,-8.5 l -0.85627,-4.35531 -0.10878,4 c -0.12606,4.63557 4.3819,14.92411 7.88676,18 3.54686,3.11275 5.00289,7.77446 5.00289,16.01754 0,9.00976 -1.18476,11.71465 -7.60726,17.36796 -5.15285,4.53572 -6.15779,4.89034 -7.07619,2.49704 z m 34.93345,-80.43384 c 2.75405,-3.98125 3.62753,-7.9487 1.75,-7.9487 -0.55,0 -1,0.38664 -1,0.85921 0,0.47257 -1.78523,2.88734 -3.96717,5.36616 -2.18195,2.47882 -3.68195,4.79218 -3.33334,5.14079 1.54416,1.54415 4.00718,0.25917 6.55051,-3.41746 z m -23.25,80.55995 c 0,-0.27024 1.55654,-2.53052 3.45897,-5.02285 1.90244,-2.49232 3.75252,-6.09622 4.11129,-8.00865 0.47572,-2.53576 1.17216,-3.47715 2.57242,-3.47715 2.91792,0 3.1371,2.11327 0.77339,7.45684 -2.41632,5.4625 -6.29128,9.54316 -9.06209,9.54316 -1.01969,0 -1.85398,-0.22111 -1.85398,-0.49135 z m -40.33333,-1.17532 c -1.60386,-1.60386 -0.60318,-4.3329 1.58333,-4.31802 3.19408,0.0217 5.14502,1.5129 4.4271,3.38377 -0.60757,1.58329 -4.72187,2.22282 -6.01043,0.93425 z m -31.36415,-4.98736 c -0.78758,-2.0524 1.75698,-9.55676 3.42418,-10.0985 0.89392,-0.29047 1.16519,1.24903 1,5.67497 -0.18934,5.07275 -0.52024,6.07391 -2.00808,6.07557 -0.97977,0.001 -2.06701,-0.74233 -2.4161,-1.65204 z m 53.15786,-0.47082 c -0.73096,-2.30303 0.98253,-4.05745 3.52814,-3.61241 1.96638,0.34377 2.57294,3.7665 0.85987,4.85212 -2.2297,1.41302 -3.67573,1.00449 -4.38801,-1.23971 z m -47.46038,-4.18402 c 0,-0.71988 0.66069,-2.18238 1.4682,-3.25 1.9175,-2.53517 1.91768,-4.44113 4.2e-4,-4.44113 -2.86913,0 -2.65917,-2.92438 0.99793,-13.89961 3.65612,-10.97227 7.70476,-18.05134 11.47915,-20.07133 1.60903,-0.86112 2.41078,-0.67258 4.03138,0.94802 2.38714,2.38714 2.5319,3.94459 0.61084,6.5718 -1.36361,1.86485 -1.45445,1.83816 -2.64623,-0.77751 -1.74828,-3.83705 -3.07508,-2.40094 -2.73289,2.95804 0.31905,4.99654 -1.85533,7.33825 -2.94495,3.17156 -0.50894,-1.94619 -0.89153,-1.46386 -2.43076,3.06448 -2.10424,6.19058 -1.55616,7.74728 1.33182,3.78272 2.20312,-3.0244 4.31439,-3.54748 5.18293,-1.2841 0.34249,0.89252 -0.56862,2.26901 -2.33387,3.52598 -1.59263,1.13405 -3.17763,2.95022 -3.52222,4.03593 -0.39758,1.25267 -1.51546,1.97402 -3.05914,1.97402 -2.50644,0 -2.87355,0.68735 -1.82562,3.41821 0.93271,2.43062 2.01082,1.95173 6.45131,-2.86563 5.41166,-5.87096 9.92922,-7.35717 23.78879,-7.82615 9.05035,-0.30625 11.45552,-0.10141 11.88279,1.01202 1.02416,2.66893 -1.52043,3.39183 -11.8451,3.36508 -9.1113,-0.0236 -11.03101,0.28517 -15.65459,2.51802 -3.15129,1.52184 -6.76938,4.38395 -9,7.1195 -6.77971,8.31439 -9.23019,10.15953 -9.23019,6.95008 z m 54.43573,-0.79512 c -0.88965,-1.43949 4.02079,-6.34993 5.46028,-5.46028 1.46024,0.90248 1.40728,3.86098 -0.096,5.36427 -1.50329,1.50329 -4.46179,1.55625 -5.36427,0.096 z m 143.09036,-3.86718 c -1.72526,-1.9064 -1.68106,-2.0883 1.34501,-5.5348 4.01351,-4.57114 4.32205,-7.32191 0.54356,-4.84615 -2.89387,1.89613 -4.57245,0.67151 -3.6924,-2.69381 1.16659,-4.46104 7.23011,-6.20064 7.30954,-2.09708 0.0175,0.90365 0.6925,2.51652 1.5,3.58414 0.80751,1.06762 1.4682,2.50756 1.4682,3.19987 0,1.11707 -5.724,10.359 -6.41586,10.359 -0.15079,0 -1.07691,-0.88703 -2.05805,-1.97117 z M 362.78316,214.3347 c -0.31659,-0.825 -0.31659,-2.175 0,-3 0.38041,-0.99133 -0.0355,-1.5 -1.22635,-1.5 -2.69451,0 -3.32085,-1.13747 -1.64563,-2.98857 2.67076,-2.95115 5.38598,-12.51978 4.79755,-16.90687 -0.43328,-3.23036 -0.19629,-4.20221 1.15079,-4.71914 0.93304,-0.35804 2.11499,-0.23244 2.62656,0.27913 1.19654,1.19654 -1.34693,20.01783 -2.9174,21.5883 -1.55933,1.55933 -1.44279,2.74715 0.26952,2.74715 1.85843,0 2.54178,2.05533 1.41302,4.25 -1.10282,2.14424 -3.68572,2.28876 -4.46806,0.25 z m 21.33961,-6.1321 c -1.01152,-1.01151 -0.86304,-5.14987 0.20852,-5.81213 1.95368,-1.20744 4.19814,0.70222 3.89434,3.31343 -0.29273,2.51599 -2.64998,3.95159 -4.10286,2.4987 z m -47.70124,-1.6679 c 0,-3.42688 5.65859,-5.02122 7.96365,-2.2438 1.84269,2.2203 0.34035,3.5438 -4.02267,3.5438 -2.56696,0 -3.94098,-0.45324 -3.94098,-1.3 z m -5,-5.7 c 0,-1.53371 3.81292,-5 5.5,-5 1.79439,0 1.98884,3.11116 0.3,4.8 -1.45092,1.45092 -5.8,1.60089 -5.8,0.2 z m -27.98469,-0.63871 c 0.0373,-2.10006 1.9719,-3.46515 7.04158,-4.96877 5.68794,-1.68698 9.47318,-4.95788 18.81547,-16.25878 3.0196,-3.65265 4.69327,-4.96811 5.40961,-4.25177 1.07268,1.07268 0.33834,2.32022 -8.51704,14.46925 -3.40567,4.67237 -5.37302,6.31602 -9.76493,8.15826 -6.30688,2.64549 -13.00718,4.11707 -12.98469,2.85181 z m 68.37823,-3.77813 c -0.82768,-2.1569 0.32393,-4.844 1.85699,-4.33298 0.68721,0.22907 1.24947,1.46649 1.24947,2.74982 0,2.74083 -2.22675,3.87566 -3.10646,1.58316 z m 29.63984,-6.51773 c -1.32798,-2.60305 -2.75854,-4.06543 -3.97698,-4.06543 -1.04662,0 -3.17498,-1.04841 -4.72967,-2.32981 -1.5547,-1.28139 -3.61423,-2.61727 -4.57673,-2.96861 -2.18594,-0.79794 -2.29501,-4.27846 -0.15976,-5.09784 1.83634,-0.70466 2.95007,-0.1988 6.40976,2.91135 9.00521,8.09539 12.1323,11.55824 11.83273,13.1032 -0.6214,3.2047 -2.71836,2.52622 -4.79935,-1.55286 z m -90.03338,-0.94299 c 0,-3.5088 2.63312,-6.2421 3.59601,-3.73283 0.92373,2.4072 -0.42112,6.61039 -2.11506,6.61039 -0.96483,0 -1.48095,-1.00285 -1.48095,-2.87756 z m 44.83813,-0.57836 c -0.91527,-2.0088 -0.91152,-2.87069 0.0165,-3.79873 1.73267,-1.73267 4.64535,0.36777 4.64535,3.34994 0,3.41501 -3.17127,3.7203 -4.66187,0.44879 z m 16.82854,1.78925 c -1.18379,-1.18378 -0.70819,-4.10342 0.76022,-4.6669 1.82872,-0.70175 3.97394,1.84663 3.21637,3.82084 -0.59766,1.55748 -2.7972,2.02546 -3.97659,0.84606 z m -9.1722,-8.34228 c -0.96948,-1.56866 0.47345,-4.99105 2.1043,-4.99105 2.0371,0 2.87617,2.72281 1.39066,4.51273 -1.43919,1.73412 -2.61904,1.89559 -3.49496,0.47832 z m 9.86576,-0.49468 c -0.85042,-2.21617 2.20067,-5.33547 3.72641,-3.80973 1.55619,1.55619 0.72041,4.72684 -1.35115,5.12578 -0.95785,0.18447 -2.02671,-0.40776 -2.37526,-1.31605 z m 28.16871,-0.11029 c -2.12913,-2.12912 -1.96521,-5.38608 0.27106,-5.38608 2.26505,0 4.2,1.88566 4.2,4.09301 0,2.36344 -2.63782,3.12632 -4.47106,1.29307 z m -42.147,-6.83315 c -0.86107,-2.2439 4.2738,-7.55293 7.30515,-7.55293 3.03393,0 2.91944,1.07727 -0.43709,4.11292 -5.45127,4.93014 -6.16002,5.28513 -6.86806,3.44001 z m 34.61806,0.10796 c 0,-0.83421 -1.56099,-2.02096 -3.5,-2.66089 -2.6597,-0.87778 -3.5,-1.71101 -3.5,-3.47056 0,-4.12676 3.15078,-4.07927 6.78372,0.10224 1.80605,2.07876 3.15605,4.43725 3,5.24108 -0.3862,1.9894 -2.78372,2.66818 -2.78372,0.78813 z m 7.85274,-3.50967 c -6.25038,-6.25717 -1.77578,-8.8569 4.82796,-2.80503 2.4776,2.27055 3.44732,3.87781 3.0167,5 -0.99331,2.58852 -3.87055,1.78345 -7.84466,-2.19497 z m -28.49111,-0.65122 c -0.95734,-2.49478 0.42715,-4.5 3.10699,-4.5 1.77096,0 2.53138,0.54072 2.53138,1.8 0,3.58996 -4.47462,5.73268 -5.63837,2.7 z m 8.30504,-6.16667 c -1.59184,-1.59183 -0.37419,-3.17331 3.61676,-4.69747 2.35589,-0.89972 4.98615,-1.63586 5.84502,-1.63586 1.99118,0 4.87155,3.15068 4.87155,5.32874 0,2.07794 -2.33464,2.17789 -4,0.17126 -1.56044,-1.88021 -3.92868,-1.86852 -6.44113,0.0318 -2.15567,1.63047 -2.90828,1.78546 -3.8922,0.80153 z"
       id="path1" />
  </g>
</svg>
